<?xml version="1.0" standalone="no"?>
<!DOCTYPE svg PUBLIC "-//W3C//DTD SVG 20010904//EN"
 "http://www.w3.org/TR/2001/REC-SVG-20010904/DTD/svg10.dtd">
<svg version="1.0" xmlns="http://www.w3.org/2000/svg"
 width="1440.000000pt" height="810.000000pt" viewBox="0 0 1440.000000 810.000000"
 preserveAspectRatio="xMidYMid meet">

<g transform="translate(0.000000,810.000000) scale(0.100000,-0.100000)"
fill="#000000" stroke="none">
<path d="M0 4050 l0 -4050 7200 0 7200 0 0 4050 0 4050 -7200 0 -7200 0 0
-4050z m7910 3696 c115 -7 215 -17 227 -24 12 -7 37 -12 55 -12 41 -1 126 -21
155 -38 11 -6 31 -28 43 -48 27 -43 23 -109 -11 -176 -39 -77 -113 -193 -136
-211 -20 -16 -23 -28 -23 -82 0 -72 -7 -67 107 -85 47 -8 77 -18 89 -31 9 -10
20 -19 24 -19 18 0 36 175 19 185 -5 4 -9 79 -9 173 l0 167 35 47 c43 58 65
65 170 50 45 -7 101 -12 126 -12 24 0 69 -7 99 -16 30 -9 82 -22 115 -29 33
-7 80 -20 105 -29 25 -10 65 -23 90 -31 66 -19 94 -31 139 -60 22 -14 49 -25
58 -25 29 -1 97 -35 135 -69 44 -38 65 -105 46 -148 -33 -76 -179 -257 -227
-283 -11 -5 -23 -30 -29 -57 -6 -26 -13 -57 -17 -68 -5 -18 4 -25 67 -55 40
-19 90 -45 110 -57 44 -27 48 -28 48 -8 0 8 -4 15 -10 15 -20 0 -9 31 25 68
29 33 33 44 29 73 -5 27 4 58 36 135 54 127 90 195 115 216 11 9 40 20 65 24
41 7 53 3 148 -47 57 -30 138 -81 180 -114 43 -34 99 -72 125 -85 26 -14 70
-42 97 -62 26 -20 59 -42 72 -49 105 -55 208 -163 208 -219 0 -42 -40 -91 -95
-118 -27 -14 -51 -29 -53 -34 -2 -4 -11 -8 -20 -8 -17 0 -79 -20 -97 -31 -5
-4 -43 -16 -83 -29 -68 -20 -87 -21 -144 -4 -10 3 -18 0 -18 -7 0 -26 -129
-119 -165 -119 -24 0 -141 -98 -170 -142 -14 -21 -30 -38 -35 -38 -6 0 -42
-32 -79 -71 l-69 -71 20 -46 c16 -36 19 -59 16 -113 -6 -73 -20 -100 -93 -179
-23 -25 -50 -67 -59 -93 -10 -26 -28 -60 -41 -75 -49 -58 -75 -106 -75 -136 0
-18 -4 -36 -9 -41 -8 -9 -47 -171 -70 -290 -5 -27 -19 -86 -30 -130 -11 -44
-21 -89 -21 -100 0 -11 -9 -45 -19 -75 -10 -30 -30 -113 -45 -185 -15 -71 -32
-150 -37 -175 -20 -96 -61 -317 -65 -360 -3 -25 -12 -59 -20 -77 -8 -17 -14
-40 -14 -52 0 -12 -13 -83 -29 -159 -16 -75 -32 -166 -36 -202 -7 -68 -42
-265 -77 -435 -33 -160 -38 -186 -48 -255 -4 -36 -18 -105 -29 -155 -11 -49
-21 -102 -21 -117 0 -73 -92 -355 -153 -473 -6 -11 -51 -99 -100 -195 -49 -96
-102 -191 -117 -210 -15 -19 -35 -50 -44 -68 -9 -18 -40 -62 -69 -99 -29 -36
-82 -105 -119 -152 -84 -108 -74 -97 -204 -218 -134 -125 -359 -296 -419 -320
-10 -3 -55 -28 -102 -55 -46 -26 -86 -48 -88 -48 -2 0 -28 -11 -57 -23 -77
-34 -99 -42 -238 -81 -241 -68 -406 -82 -670 -58 -162 15 -194 22 -372 82
-155 52 -243 96 -388 192 -112 74 -226 184 -316 303 -17 22 -51 67 -75 100
-97 128 -217 361 -258 500 -62 212 -70 246 -106 467 -22 131 -23 485 -2 618
40 246 49 294 82 430 20 80 42 154 49 165 7 11 16 52 21 90 4 39 13 85 21 103
25 60 46 162 48 235 2 53 10 85 28 122 18 34 38 114 63 250 21 110 51 253 67
318 23 93 28 129 22 175 -4 41 -2 68 8 92 8 19 21 60 28 90 7 30 19 68 27 84
9 16 19 70 23 121 6 65 15 105 31 136 13 24 26 71 30 104 4 33 14 105 23 159
19 113 19 110 7 236 -5 58 -5 99 0 106 14 17 0 92 -27 146 -30 59 -31 114 -4
143 11 12 29 46 39 76 15 43 26 58 55 74 29 16 35 24 31 40 -4 11 -9 31 -12
45 -4 13 -18 45 -32 70 -15 25 -35 72 -46 105 -23 71 -45 106 -77 124 -27 14
-78 87 -78 111 0 9 -19 22 -52 34 -39 14 -69 36 -124 92 -79 81 -110 135 -118
204 -6 55 -2 62 49 78 38 12 70 27 240 108 39 19 95 41 125 51 30 9 84 30 120
47 36 16 115 46 175 67 l110 37 38 -22 c62 -34 71 -61 69 -213 -1 -72 -6 -153
-12 -178 -8 -38 -7 -55 7 -96 17 -47 42 -64 57 -40 4 5 32 17 64 26 31 9 69
20 84 24 19 6 33 4 47 -6 32 -22 40 -8 37 57 -3 52 -7 63 -34 87 -35 31 -60
86 -96 206 -21 72 -25 112 -18 189 3 25 77 63 162 83 41 9 94 26 118 37 24 11
80 26 125 33 45 7 105 17 132 23 121 25 241 36 382 37 l152 0 35 -34 c51 -49
54 -89 18 -192 -50 -141 -73 -193 -97 -225 -13 -17 -22 -33 -20 -36 2 -2 5
-20 6 -39 4 -58 13 -68 56 -58 54 12 147 11 160 -2 7 -7 18 -9 26 -6 19 7 31
85 16 103 -6 7 -8 18 -4 23 3 6 -5 30 -19 53 -18 31 -26 65 -31 123 -3 44 -11
104 -16 133 -9 47 -8 57 13 95 33 60 108 97 197 98 36 0 84 4 106 8 55 12 81
12 315 -3z"/>
<path d="M7614 7673 c-22 -68 -26 -73 -61 -73 -28 0 -37 6 -54 35 -19 31 -25
35 -64 35 -24 0 -47 -4 -50 -10 -9 -15 13 -240 25 -255 6 -7 31 -18 55 -24
l45 -11 0 -50 c0 -50 0 -50 -33 -50 -47 0 -81 -37 -72 -78 3 -17 13 -36 21
-43 8 -6 14 -17 14 -24 0 -9 19 -13 63 -13 34 0 120 -5 191 -11 71 -6 169 -11
218 -11 l90 0 -6 -151 c-4 -84 -8 -155 -10 -158 -5 -8 -20 -266 -19 -309 l2
-34 -42 7 c-51 9 -71 23 -57 40 5 6 7 15 4 18 -6 6 -9 25 -18 109 -1 15 -8 33
-15 41 -6 8 -8 23 -4 32 4 12 3 16 -5 11 -6 -4 -10 1 -9 11 0 10 -23 54 -53
98 -63 93 -73 105 -94 105 -45 0 -323 -309 -300 -333 3 -3 29 24 56 61 56 75
214 232 232 232 16 0 112 -148 125 -195 23 -79 41 -199 32 -208 -21 -21 -39 2
-44 55 -3 29 -9 71 -15 93 -13 55 -80 192 -97 198 -19 8 -81 -39 -145 -112
-30 -34 -67 -75 -82 -91 -15 -15 -24 -30 -21 -34 4 -3 1 -6 -5 -6 -6 0 -12
-15 -14 -32 -3 -32 -4 -33 -66 -42 -66 -9 -92 -1 -76 26 5 7 20 47 35 88 14
41 46 127 71 190 78 201 109 300 93 300 -4 0 -13 -7 -19 -16 -8 -10 -33 -17
-75 -20 -35 -2 -67 -7 -71 -9 -4 -3 -10 -23 -14 -45 -8 -50 -36 -56 -36 -7 0
52 -9 58 -78 51 l-62 -7 0 -49 c0 -41 -3 -49 -17 -46 -9 2 -21 20 -27 43 -11
38 -14 40 -56 43 -65 5 -93 38 -55 66 9 6 18 27 21 47 5 30 1 42 -22 70 -23
26 -28 42 -26 71 3 33 6 37 48 49 25 8 49 18 54 24 14 17 92 264 86 273 -3 5
-23 6 -45 3 -31 -5 -45 -14 -63 -41 -21 -30 -29 -35 -63 -35 -37 0 -40 2 -43
30 -5 42 -12 46 -62 37 -38 -6 -44 -11 -47 -37 -6 -40 -22 -57 -52 -53 -20 2
-27 10 -31 33 -5 28 -8 30 -48 29 -42 -1 -73 -17 -59 -30 4 -4 19 -2 33 5 32
14 51 2 56 -37 3 -25 7 -27 46 -27 25 0 46 -6 51 -14 12 -18 24 19 24 71 0 35
2 38 27 38 24 0 29 -5 37 -37 l9 -38 63 -3 c54 -3 63 -1 58 12 -4 9 -2 16 4
16 6 0 7 5 4 10 -10 17 15 40 42 40 18 0 23 -4 19 -17 -45 -155 -59 -192 -74
-197 -14 -4 -77 -14 -132 -21 -8 -1 -62 -11 -120 -23 -58 -11 -168 -30 -245
-42 -77 -11 -161 -24 -187 -29 -32 -5 -51 -5 -57 3 -5 6 -19 49 -31 95 -17 68
-19 86 -8 92 24 15 45 9 63 -17 15 -24 20 -25 65 -19 31 4 50 3 55 -4 13 -22
25 1 20 42 -5 51 2 64 35 68 21 3 27 -1 34 -28 12 -38 27 -46 61 -31 19 8 28
8 40 -2 12 -10 16 -8 24 11 9 26 -1 65 -15 62 -5 -1 -10 -11 -12 -23 -3 -15
-11 -20 -37 -20 -29 0 -34 4 -37 28 -3 25 -6 27 -45 26 -53 -1 -73 -17 -73
-59 0 -25 -5 -34 -22 -39 -42 -11 -62 -6 -84 21 -20 26 -22 26 -67 13 -31 -8
-47 -18 -47 -29 0 -27 50 -204 61 -217 6 -7 31 -16 55 -20 25 -3 52 -13 59
-21 21 -20 20 -73 -1 -73 -9 0 -29 -9 -45 -21 -37 -26 -39 -66 -4 -99 17 -16
25 -34 25 -56 0 -30 -3 -33 -41 -39 -23 -4 -57 -14 -75 -21 -32 -13 -34 -18
-34 -60 0 -53 -19 -57 -32 -6 -5 17 -12 33 -17 36 -5 3 -35 -3 -67 -13 -63
-20 -68 -28 -49 -93 12 -44 -20 -35 -51 13 -19 30 -30 39 -42 34 -9 -4 -35
-12 -57 -17 -35 -8 -41 -7 -57 14 -23 30 -23 48 2 48 17 0 20 7 20 44 0 48 -6
56 -53 65 -20 4 -33 16 -42 38 l-14 33 47 26 c71 41 72 43 72 186 0 70 -2 128
-4 128 -2 0 -25 -9 -50 -19 -38 -17 -46 -26 -56 -60 -12 -47 -42 -56 -61 -18
-16 30 -15 30 -36 19 -10 -5 -31 -15 -48 -23 -23 -11 -31 -23 -35 -49 -4 -27
-11 -37 -33 -45 -26 -8 -31 -6 -48 17 l-20 27 -49 -21 c-43 -18 -50 -25 -50
-48 0 -47 -72 -79 -100 -45 -7 8 -19 15 -26 15 -22 0 -124 -44 -121 -52 1 -4
40 -46 87 -94 l85 -86 65 7 c58 6 69 4 93 -15 31 -24 33 -35 12 -56 -40 -41
-18 -112 31 -100 28 7 35 -3 68 -94 15 -41 32 -85 38 -97 6 -13 9 -26 6 -29
-3 -3 14 -48 38 -99 55 -119 84 -194 76 -199 -4 -2 -32 -9 -62 -16 -30 -7 -67
-19 -81 -26 -30 -15 -59 -69 -59 -108 0 -36 44 -80 73 -72 23 6 47 -9 47 -29
0 -6 -18 -31 -40 -54 -48 -50 -52 -85 -15 -129 29 -34 30 -20 -21 -232 -14
-58 -34 -143 -44 -190 -10 -47 -32 -146 -48 -220 -112 -493 -205 -928 -232
-1080 -10 -58 -36 -199 -59 -315 -23 -115 -53 -271 -66 -345 -13 -74 -44 -241
-69 -370 -51 -272 -59 -349 -58 -557 2 -323 60 -615 176 -883 184 -422 528
-735 961 -873 146 -47 189 -55 325 -67 207 -19 404 2 636 65 132 36 370 135
444 185 14 10 66 44 115 75 313 202 633 579 830 976 112 226 185 451 235 719
23 126 24 131 105 565 69 373 163 850 216 1100 22 105 47 219 54 255 8 36 30
139 50 230 20 91 51 237 70 325 19 88 41 192 50 230 9 39 18 85 22 103 5 27
13 36 44 48 64 26 84 98 41 147 -12 14 -13 22 -4 42 10 22 15 24 56 19 54 -8
99 15 121 62 29 62 11 104 -61 135 -25 10 -47 26 -51 35 -4 11 26 47 103 125
60 60 117 112 127 115 9 3 24 18 32 34 8 15 54 67 102 114 76 75 92 86 114 81
41 -9 78 5 94 35 20 39 -1 97 -48 124 -19 12 -59 35 -88 53 -30 17 -63 40 -74
50 -13 12 -39 19 -77 21 -47 2 -61 -1 -77 -17 -44 -44 -17 -102 74 -160 36
-22 68 -41 71 -41 12 0 64 -45 64 -55 0 -6 -10 -20 -22 -31 -13 -12 -46 -45
-74 -75 -45 -49 -56 -55 -95 -57 -134 -8 -300 -80 -405 -175 l-63 -58 -25 18
c-45 32 -35 48 99 163 136 117 176 151 257 224 49 43 87 80 86 81 -2 1 -35 17
-75 35 l-72 32 -33 -31 c-36 -33 -43 -36 -53 -21 -7 11 -25 4 -25 -10 0 -5 12
-16 27 -23 25 -13 28 -13 50 13 13 15 23 33 23 39 0 14 -1 14 48 -9 23 -11 42
-26 42 -32 0 -7 -28 -38 -62 -69 -60 -56 -93 -70 -114 -50 -5 6 -54 32 -109
60 -130 64 -140 75 -130 143 5 29 8 70 9 91 0 20 2 37 6 37 3 0 20 -9 38 -20
25 -15 32 -25 27 -38 -18 -47 -15 -67 10 -85 25 -18 27 -18 46 -1 10 9 19 28
19 41 0 28 8 28 55 6 32 -15 36 -21 31 -45 -6 -32 8 -37 24 -9 19 37 11 50
-50 81 l-60 30 -22 -35 c-13 -19 -29 -35 -35 -35 -17 0 -16 10 2 34 23 31 18
44 -30 78 -38 27 -45 37 -45 65 0 23 5 33 15 33 18 0 55 56 55 83 0 10 -7 31
-15 47 -13 26 -13 32 5 73 20 44 21 45 53 36 53 -15 71 -10 97 27 14 19 53 70
88 114 34 43 62 82 62 87 0 5 -19 16 -43 25 l-43 15 -29 -28 c-33 -34 -36 -34
-77 -13 -29 15 -30 19 -25 58 6 41 5 43 -29 59 -49 24 -58 22 -74 -18 -16 -40
-40 -45 -69 -16 -16 16 -18 26 -11 51 8 30 7 32 -25 46 -19 8 -42 14 -51 14
-22 0 -12 -24 12 -28 27 -5 45 -32 38 -59 -7 -27 7 -47 49 -68 40 -20 47 -19
47 5 0 11 5 20 10 20 6 0 10 7 10 15 0 22 24 29 50 15 18 -10 21 -17 15 -47
-8 -42 10 -67 61 -83 32 -11 36 -10 60 19 28 34 40 37 67 17 16 -12 12 -21
-53 -108 l-70 -94 -187 52 c-104 29 -208 59 -233 67 -25 9 -98 32 -163 52 -70
22 -121 44 -126 53 -9 16 -5 211 4 220 2 2 15 2 28 -2 17 -4 26 -16 33 -43 8
-34 14 -40 56 -54 26 -8 51 -19 55 -22 13 -13 23 -7 23 16 0 52 11 67 47 67
l36 0 -6 -40 c-4 -33 -1 -43 16 -55 12 -8 31 -15 42 -15 12 0 26 -5 33 -12 9
-9 13 -7 18 5 8 22 -3 37 -27 37 -41 0 -60 19 -57 57 3 35 1 37 -40 49 l-43
13 -17 -40 c-16 -38 -19 -40 -50 -35 -43 6 -62 22 -62 51 0 29 -19 45 -63 52
-41 6 -38 13 -57 -147 -15 -130 -16 -126 39 -154 57 -29 65 -44 51 -97 -10
-38 -12 -39 -43 -34 -24 5 -39 1 -60 -15 -32 -25 -34 -48 -8 -98 21 -40 33
-45 411 -159 114 -34 144 -48 135 -63 -2 -4 -6 -41 -9 -81 -2 -41 -12 -102
-21 -137 -16 -63 -14 -82 9 -82 28 0 35 -24 19 -58 -8 -17 -19 -32 -24 -32 -9
0 -11 7 -13 45 -2 35 -20 28 -34 -11 -14 -42 -17 -37 50 -85 l22 -16 -24 -31
c-36 -45 -54 -42 -46 8 6 38 5 40 -12 31 -20 -11 -38 -69 -25 -82 5 -4 35 -21
69 -38 89 -44 92 -51 43 -94 -22 -21 -46 -37 -53 -37 -27 0 -51 42 -51 88 0
27 -5 47 -12 49 -9 3 -13 -7 -13 -30 0 -42 -19 -60 -54 -51 -46 11 -51 27 -52
178 -1 78 -4 155 -6 171 -7 47 -85 205 -102 205 -21 0 -87 -31 -110 -52 -11
-10 -24 -18 -29 -18 -21 0 -227 -185 -227 -203 0 -5 -11 -22 -24 -38 -13 -15
-26 -34 -28 -40 -5 -16 -78 10 -78 27 0 14 61 124 131 235 26 42 66 114 89
160 23 46 48 91 55 99 7 8 16 24 19 36 6 19 1 22 -41 27 -27 4 -64 9 -83 12
-33 6 -36 4 -54 -34 -25 -54 -50 -56 -41 -3 4 26 2 42 -7 49 -12 10 -118 36
-124 31 -1 -2 -6 -18 -11 -37 -13 -51 -31 -50 -35 0 -3 40 -6 43 -38 52 -42
10 -55 23 -64 60 -5 22 -3 27 13 27 13 0 23 11 31 35 12 37 7 70 -17 97 -13
15 -13 22 -1 60 14 42 16 43 61 46 l46 3 66 123 c36 68 65 131 65 139 0 9 -14
17 -37 21 -35 6 -41 3 -70 -30 -29 -33 -36 -36 -68 -30 -19 4 -36 12 -36 19
-1 7 -2 25 -3 42 -1 27 -5 30 -44 36 -45 6 -62 -7 -62 -45 0 -22 -31 -35 -57
-25 -18 6 -23 16 -23 43 0 32 -3 36 -35 42 -48 9 -62 1 -70 -38 -9 -40 -19
-48 -54 -39 -21 6 -27 14 -29 44 -3 37 -4 37 -48 37 -34 0 -46 -4 -50 -17z
m76 -47 c0 -42 18 -58 59 -50 21 4 31 3 31 -6 0 -20 24 -5 26 16 4 79 2 75 35
72 28 -3 32 -7 34 -37 3 -36 18 -51 51 -51 11 0 26 -6 32 -12 10 -10 15 -10
22 2 5 8 10 23 10 33 0 9 4 17 9 17 5 0 7 9 4 19 -4 17 0 20 23 18 25 -2 29
-7 29 -34 0 -49 26 -73 80 -73 29 0 45 4 45 13 1 19 36 57 54 57 29 0 26 -20
-21 -117 l-48 -98 -80 1 c-135 2 -477 14 -535 20 -122 11 -116 8 -129 71 -6
31 -11 78 -11 105 0 44 2 48 24 48 17 0 30 -10 45 -35 18 -32 25 -35 65 -35
24 0 51 -2 58 -5 10 -4 14 5 15 35 2 52 8 60 44 60 26 0 29 -3 29 -34z m122
-276 c64 -6 139 -10 167 -10 46 0 51 -2 51 -22 0 -49 -1 -49 -241 -37 -123 6
-227 14 -230 18 -4 3 -10 20 -13 36 l-7 30 78 -3 c43 -1 131 -7 195 -12z
m-2011 -37 c2 -92 -4 -169 -14 -179 -7 -6 -34 -19 -62 -29 -27 -10 -70 -27
-95 -37 -57 -25 -68 -29 -170 -68 -47 -17 -105 -41 -129 -52 -54 -24 -62 -21
-136 60 -47 51 -56 65 -44 73 32 21 59 21 85 0 25 -19 29 -20 44 -6 10 9 34
19 54 22 35 5 36 7 30 38 -5 28 -2 36 20 50 26 18 42 14 64 -17 16 -22 40 -23
66 -3 16 12 22 12 28 2 6 -9 10 -9 17 2 5 7 13 11 19 7 6 -4 8 2 5 14 -3 11
-9 23 -14 26 -18 11 -8 34 22 49 17 9 32 15 33 13 1 -2 10 -15 19 -30 15 -24
21 -26 42 -18 14 5 31 9 38 7 7 -1 12 8 12 20 0 11 3 24 7 28 4 4 4 12 2 19
-3 7 5 18 18 24 34 16 38 15 39 -15z m1083 -2 c3 -5 3 -22 0 -37 -5 -28 -8
-29 -67 -32 -34 -1 -71 -6 -82 -11 -22 -10 -117 -26 -243 -43 -82 -11 -83 -11
-100 13 -9 13 -17 28 -17 34 0 5 41 15 90 22 50 6 117 16 150 22 33 6 83 13
110 16 28 4 66 10 85 15 48 11 68 12 74 1z m766 -76 c58 -3 128 -9 155 -12 28
-3 83 -5 124 -4 47 0 83 -5 102 -15 32 -16 39 -48 13 -58 -28 -11 -570 22
-596 35 -10 6 -18 18 -18 27 0 32 22 43 70 38 25 -3 92 -8 150 -11z m1135 -32
c73 -23 128 -39 299 -90 64 -19 74 -31 57 -70 -13 -29 -19 -29 -156 12 -49 15
-127 37 -172 50 -128 37 -137 43 -141 94 -3 39 -1 43 15 36 10 -4 54 -18 98
-32z m-1853 -27 c10 -14 5 -28 -13 -37 -11 -6 -221 -47 -279 -55 -8 -1 -60 -9
-115 -18 -166 -27 -190 -29 -213 -17 -12 7 -22 17 -22 24 1 31 21 42 92 48 40
4 84 10 98 13 14 3 65 10 114 16 49 6 92 13 96 15 3 2 32 7 63 10 32 4 70 10
85 15 32 9 84 1 94 -14z m1716 -72 c32 -9 113 -33 182 -54 325 -99 343 -108
321 -149 -15 -27 -41 -27 -138 3 -43 13 -109 33 -148 44 -258 75 -304 93 -318
122 -26 51 5 61 101 34z m-1743 -87 c13 -104 15 -124 26 -232 6 -60 15 -146
19 -190 15 -136 16 -130 -31 -128 -48 1 -61 11 -63 50 -1 15 -10 42 -19 60 -9
18 -17 41 -17 53 0 12 -4 19 -8 16 -11 -6 -47 55 -44 73 2 7 0 11 -5 8 -5 -3
-33 17 -63 45 -94 86 -93 86 -136 38 -59 -65 -123 -154 -117 -163 2 -4 26 21
53 55 26 35 59 73 72 86 l25 23 70 -68 c75 -74 136 -177 148 -250 6 -39 5 -43
-13 -43 -15 0 -22 9 -27 31 -11 51 -72 173 -97 194 -13 11 -36 36 -51 55 l-28
35 -64 -70 c-36 -38 -65 -75 -65 -82 0 -6 -4 -13 -9 -15 -13 -5 -61 -114 -73
-169 -6 -26 -15 -46 -19 -43 -4 2 -11 -2 -16 -10 -4 -7 -32 -16 -61 -20 l-54
-6 7 42 c4 24 22 106 40 183 18 77 38 182 44 232 6 51 15 104 21 117 5 13 6
33 4 44 -7 23 -5 23 186 47 69 9 132 18 140 21 8 3 33 8 55 10 22 3 65 11 95
18 30 7 58 11 62 9 3 -2 9 -27 13 -56z m479 -44 c-10 -106 -13 -109 -141 -117
-59 -4 -139 -9 -178 -12 -38 -3 -75 -1 -82 3 -6 5 -12 35 -14 68 -1 33 -7 66
-13 74 -8 11 -8 13 2 7 7 -4 19 -2 27 4 21 18 45 5 45 -24 0 -25 41 -66 67
-66 22 0 47 68 32 86 -15 19 -10 24 34 29 37 5 63 -13 54 -37 -8 -22 25 -68
49 -68 16 0 26 10 38 40 8 22 13 46 10 54 -4 11 4 16 28 19 18 2 37 5 41 5 4
1 5 -28 1 -65z m-1684 7 c0 -11 -16 -20 -52 -30 -29 -7 -77 -23 -107 -36 -29
-13 -58 -24 -64 -24 -12 0 -47 30 -47 40 0 7 143 63 165 65 6 1 26 9 45 18 32
15 36 15 48 0 6 -9 12 -24 12 -33z m2412 -3 c5 -7 5 -24 2 -38 -4 -21 1 -31
22 -48 26 -20 28 -21 44 -4 20 22 32 63 18 63 -5 0 -8 6 -5 13 4 13 51 11 80
-4 18 -10 23 -44 7 -54 -15 -10 0 -35 33 -52 29 -15 32 -14 49 7 10 12 18 36
18 52 0 23 4 29 16 24 9 -3 27 -6 40 -6 14 0 27 -6 30 -14 6 -17 -29 -98 -51
-116 -8 -7 -15 -21 -15 -32 0 -15 -5 -18 -20 -14 -39 11 -55 15 -95 21 -22 3
-62 10 -90 15 -27 5 -67 12 -87 15 -57 9 -70 27 -67 99 1 33 -2 70 -6 80 -8
17 -5 18 31 11 21 -4 42 -12 46 -18z m-2324 -70 c-4 -25 -19 -33 -163 -87
-161 -60 -163 -61 -180 -44 -11 12 -12 20 -3 39 11 25 18 28 278 107 54 17 72
13 68 -15z m496 -94 c-7 -113 -6 -111 -44 -105 -17 2 -41 0 -53 -6 -73 -34
-237 -78 -260 -69 -17 7 -47 64 -50 95 -1 13 -7 20 -17 19 -33 -4 -23 16 15
29 22 7 41 14 41 14 1 0 13 -18 28 -40 22 -33 32 -40 60 -40 31 0 34 3 39 37
5 27 2 40 -8 46 -23 13 -18 37 8 37 13 0 28 5 35 12 16 16 38 -4 45 -42 7 -34
41 -57 62 -40 7 6 18 24 25 41 11 25 10 32 -5 49 -16 18 -16 20 -1 26 9 3 22
4 30 1 8 -3 17 1 20 9 3 8 12 14 21 14 13 0 14 -13 9 -87z m-522 -10 c17 -22
96 -154 168 -283 29 -52 68 -121 87 -153 38 -67 40 -77 16 -78 -10 -1 -32 -2
-50 -4 -26 -2 -34 3 -43 24 -13 33 -70 119 -70 107 0 -4 -18 8 -39 27 -22 20
-75 52 -118 72 -43 20 -89 41 -102 48 -17 8 -31 33 -48 82 -13 39 -25 76 -26
84 -1 10 29 24 93 45 52 17 97 34 98 39 6 12 18 8 34 -10z m1544 -16 c-9 -45
-28 -62 -54 -48 -15 8 -20 20 -19 44 2 31 4 33 41 34 38 2 38 2 32 -30z m-122
14 c3 -5 3 -23 0 -40 -5 -25 -11 -31 -33 -31 -31 0 -51 16 -51 42 0 10 -5 18
-11 18 -5 0 -7 5 -4 10 8 12 92 13 99 1z m-136 -43 c3 -34 1 -38 -21 -38 -27
0 -52 23 -43 39 3 5 -1 11 -9 15 -32 12 -14 27 28 24 41 -3 42 -4 45 -40z
m1030 16 c18 -5 22 -13 22 -45 0 -21 -5 -41 -10 -44 -16 -10 -56 20 -56 41 -1
11 -4 27 -9 37 -8 18 10 22 53 11z m156 -34 c12 -11 -21 -80 -38 -80 -24 0
-44 25 -49 63 l-6 39 42 -7 c23 -4 46 -11 51 -15z m121 -20 c6 -10 -31 -90
-43 -90 -4 0 -15 7 -25 14 -14 11 -17 22 -12 50 7 33 10 36 41 36 18 0 36 -4
39 -10z m-1103 -56 c-5 -42 -21 -55 -57 -46 -20 6 -30 15 -30 28 0 10 -3 24
-7 30 -11 17 -4 19 49 18 47 0 48 -1 45 -30z m2441 15 c93 -47 239 -143 249
-164 15 -33 -6 -68 -37 -63 -13 3 -84 42 -158 88 -115 71 -136 88 -141 113 -3
16 -3 33 0 38 9 15 42 10 87 -12z m-2593 -5 c6 -6 7 -24 4 -41 -6 -30 -8 -31
-43 -26 -56 8 -63 11 -56 32 4 13 -1 21 -17 26 -21 7 -20 8 12 14 48 10 87 8
100 -5z m1663 -78 c40 -104 56 -240 37 -329 -12 -59 -19 -67 -39 -43 -8 10 -9
26 -2 57 9 43 9 56 -4 164 -8 69 -33 150 -53 175 l-17 21 -27 -20 c-14 -12
-29 -21 -33 -21 -12 0 -111 -79 -151 -121 -23 -24 -54 -64 -69 -88 -37 -60
-55 -40 -21 24 28 52 90 118 100 107 4 -3 4 1 0 11 -4 12 -1 17 9 17 9 0 20 6
24 14 4 7 24 21 43 31 19 9 44 25 55 35 11 10 38 27 59 39 l40 20 14 -21 c8
-11 24 -44 35 -72z m-2513 50 c0 -28 -24 -61 -37 -53 -17 11 -12 76 6 80 23 5
31 -1 31 -27z m1853 -8 c13 -7 17 -16 13 -31 -3 -12 -6 -28 -6 -34 0 -17 -40
-16 -62 1 -10 7 -18 23 -18 34 0 11 -5 24 -10 27 -6 4 -8 11 -4 16 6 11 56 3
87 -13z m-1942 -15 c14 -37 5 -53 -31 -53 -17 0 -29 4 -25 9 3 6 -4 19 -16 29
l-20 20 28 10 c44 16 53 14 64 -15z m2097 -10 c34 -6 41 -23 17 -43 -8 -7 -15
-19 -15 -26 0 -18 -37 -18 -69 0 -18 10 -24 22 -25 50 -1 37 0 37 29 31 17 -3
45 -9 63 -12z m-2203 -34 c9 -17 15 -32 13 -34 -2 -1 -22 -5 -44 -9 -39 -5
-42 -4 -48 20 -5 20 -10 23 -21 14 -9 -7 -15 -8 -20 0 -3 5 4 14 17 19 13 4
30 11 38 14 33 12 50 6 65 -24z m1149 -8 c6 -10 -16 -61 -26 -61 -4 0 -7 16
-6 35 1 33 19 47 32 26z m-74 -24 c0 -12 -3 -32 -6 -45 -6 -20 -12 -23 -53
-20 -42 3 -46 5 -49 31 -2 15 -9 27 -18 27 -29 0 -13 19 19 22 100 10 107 9
107 -15z m-910 -24 c0 -42 -15 -60 -34 -44 -21 18 -20 48 2 60 27 16 32 13 32
-16z m1820 -12 c0 -11 -4 -23 -10 -26 -5 -3 -10 -15 -10 -26 0 -10 -4 -19 -9
-19 -5 0 -9 20 -8 45 2 36 6 45 20 45 10 0 17 -8 17 -19z m-2332 -23 c68 -40
125 -93 164 -152 42 -65 45 -76 23 -76 -8 0 -23 17 -34 38 -27 53 -118 133
-195 173 -36 19 -66 38 -66 43 0 13 67 -3 108 -26z m416 2 c3 -17 6 -33 6 -37
1 -7 -13 -10 -69 -15 -33 -2 -36 0 -33 21 3 19 0 22 -17 16 -12 -4 -21 -2 -21
4 0 12 0 12 48 16 19 1 39 8 45 14 19 19 34 12 41 -19z m2039 14 c46 -8 54
-22 33 -62 -20 -38 -39 -45 -81 -28 -31 13 -33 17 -30 58 2 23 4 44 4 46 1 2
9 1 19 -2 9 -3 34 -8 55 -12z m1002 -46 c30 -14 31 -27 4 -62 -22 -28 -27 -30
-48 -17 -9 6 -11 20 -6 50 7 45 11 47 50 29z m-1478 -32 c10 -3 54 -10 98 -16
235 -30 542 -95 660 -140 16 -6 59 -20 95 -30 67 -19 341 -122 420 -158 25
-11 79 -34 120 -52 41 -18 108 -48 148 -67 41 -19 106 -47 145 -63 80 -32 105
-57 88 -89 -24 -45 -54 -37 -316 84 -38 18 -92 43 -120 55 -27 12 -74 33 -103
46 -29 13 -55 24 -57 24 -3 0 -24 8 -48 19 -262 115 -583 211 -907 272 -290
55 -800 61 -1120 14 -198 -29 -208 -30 -270 -44 -25 -6 -58 -13 -75 -16 -209
-44 -379 -86 -695 -171 -74 -20 -147 -38 -161 -41 -58 -11 -55 57 4 82 18 7
69 17 113 20 43 4 82 9 86 11 8 5 224 62 278 74 19 4 58 14 85 23 74 22 331
80 415 92 8 1 22 5 30 8 8 3 42 9 75 13 71 9 79 10 125 18 79 13 242 29 355
35 138 7 505 6 532 -3z m-1503 -54 c-4 -15 -8 -31 -8 -37 -1 -5 -22 -11 -48
-13 -50 -3 -54 1 -49 52 1 16 -1 17 -14 6 -17 -14 -31 -8 -20 9 3 6 21 11 39
11 19 0 49 6 67 14 30 13 34 13 37 -1 2 -8 0 -27 -4 -41z m3096 28 c53 -27 57
-38 24 -66 -36 -29 -54 -30 -81 -5 -20 19 -20 22 -5 55 9 20 18 36 19 36 2 0
21 -9 43 -20z m-110 -85 c28 -14 50 -30 50 -37 0 -15 -52 -58 -71 -58 -8 0
-25 10 -37 23 -17 18 -20 30 -15 60 3 20 10 37 15 37 5 0 31 -11 58 -25z
m-1525 -25 c359 -32 751 -131 1110 -281 11 -4 72 -29 135 -54 162 -66 384
-166 392 -179 12 -17 10 -24 -13 -45 -25 -24 -23 -24 -182 48 -37 17 -70 31
-72 31 -2 0 -28 11 -57 24 -29 13 -89 38 -133 56 -44 17 -117 47 -162 66 -45
19 -85 34 -88 34 -4 0 -64 20 -134 45 -464 165 -1024 231 -1531 180 -148 -14
-214 -26 -570 -96 -84 -17 -545 -129 -636 -155 -12 -3 -25 1 -33 10 -18 22 6
55 49 65 80 20 267 63 289 68 13 2 51 11 85 19 104 26 140 35 170 39 16 3 46
10 65 15 139 40 530 104 731 119 129 10 418 6 585 -9z m1975 -45 c0 -8 -15
-17 -37 -21 -21 -3 -60 -13 -88 -21 -44 -13 -74 -25 -161 -65 -12 -6 -45 -30
-72 -54 -28 -24 -55 -44 -61 -44 -48 0 63 86 204 159 93 47 215 74 215 46z
m-2030 -79 c324 -36 579 -94 915 -208 138 -47 366 -134 449 -172 31 -14 59
-26 61 -26 6 0 143 -63 222 -103 50 -24 63 -36 63 -54 0 -39 -39 -39 -119 1
-39 20 -126 59 -194 87 -67 28 -147 62 -177 74 -75 31 -519 177 -655 215 -60
17 -164 41 -230 55 -148 29 -210 38 -375 54 -112 11 -91 10 -310 11 -157 0
-365 -11 -445 -25 -16 -3 -59 -9 -95 -15 -160 -23 -587 -102 -705 -129 -115
-27 -332 -87 -376 -105 -20 -9 -41 16 -33 37 5 15 99 57 127 57 7 0 41 9 77
20 36 12 106 30 155 41 307 67 436 94 565 118 58 11 125 24 150 29 25 6 74 13
110 17 36 4 79 9 95 11 17 2 71 7 120 10 50 4 91 8 93 9 5 5 463 -3 512 -9z
m64 -141 c263 -36 446 -79 686 -158 74 -25 191 -63 260 -85 114 -36 248 -90
464 -185 83 -37 125 -75 70 -64 -16 3 -110 13 -209 22 -99 9 -241 22 -315 30
-219 23 -751 63 -1210 90 -129 8 -320 21 -425 29 -104 8 -320 22 -480 31 -534
29 -799 46 -804 51 -9 9 10 15 165 55 219 55 351 81 799 158 110 19 266 38
360 45 113 8 536 -4 639 -19z m21 -415 c83 -6 173 -13 200 -15 28 -3 156 -12
285 -20 129 -8 300 -22 380 -30 80 -8 226 -21 325 -30 285 -24 303 -27 320
-39 15 -11 13 -31 -29 -218 -26 -113 -51 -228 -56 -255 -5 -26 -17 -79 -25
-118 -20 -93 -51 -234 -80 -375 -13 -63 -31 -149 -40 -190 -54 -253 -165 -809
-186 -940 -14 -80 -62 -334 -126 -660 -68 -352 -121 -519 -233 -746 -156 -313
-384 -614 -630 -828 -65 -56 -248 -178 -340 -227 -90 -48 -242 -113 -320 -138
-225 -72 -622 -117 -663 -76 -9 8 -13 23 -11 32 5 27 61 358 75 443 6 41 22
125 35 186 13 61 24 129 24 150 1 22 11 84 24 139 21 92 25 100 47 100 13 1
49 7 80 14 52 13 58 17 79 60 27 55 42 158 45 301 1 112 41 298 70 331 8 8 15
19 15 24 0 4 16 21 35 38 30 25 35 36 35 71 -1 57 -30 116 -76 151 -52 39 -59
50 -73 109 -13 57 -1 84 23 50 25 -34 28 -8 5 55 -11 34 -19 64 -16 67 2 3 18
-16 33 -41 46 -72 55 -56 18 34 -19 45 -18 54 6 41 25 -13 25 -4 1 53 -15 35
-27 47 -60 61 -57 22 -72 21 -119 -14 -30 -21 -42 -37 -42 -55 0 -31 -10 -32
-37 -2 -26 27 -30 97 -6 97 8 0 28 9 44 21 17 11 37 18 46 15 21 -8 83 15 83
31 0 7 9 13 20 13 11 0 20 -4 20 -9 0 -9 30 -24 36 -18 2 2 -5 14 -16 27 -11
13 -20 29 -20 37 0 17 -26 17 -33 -1 -5 -11 -60 -46 -74 -46 -1 0 -3 9 -3 20
0 15 7 20 25 20 18 0 26 7 31 25 6 25 28 33 39 15 9 -14 28 -1 21 15 -5 15 59
75 80 75 18 0 18 9 -2 31 -20 22 -12 49 17 56 16 4 19 11 15 29 -5 17 -2 24 9
24 25 0 17 44 -15 85 -16 21 -30 41 -30 45 0 22 24 70 35 70 8 0 16 9 20 20 5
16 12 18 38 13 26 -5 30 -3 20 7 -27 29 37 56 65 28 9 -9 15 -9 24 0 9 9 9 12
0 12 -7 0 -12 6 -12 14 0 21 -28 27 -69 16 -55 -16 -77 -31 -112 -80 -20 -27
-34 -39 -37 -31 -2 7 10 32 27 54 18 23 39 57 47 75 l14 32 71 -5 c62 -5 71
-3 65 10 -4 12 0 14 19 9 41 -10 32 28 -13 60 -28 19 -48 25 -77 23 l-39 -2 2
40 c7 94 68 383 86 401 6 7 43 22 81 34 86 28 128 54 181 112 48 52 53 64 98
268 20 85 40 170 45 189 6 19 8 37 6 42 -3 4 -59 10 -124 14 -65 4 -125 11
-132 15 -10 7 -9 32 5 131 9 67 24 141 31 163 8 23 15 51 15 63 0 12 5 44 12
73 l12 51 80 -6 c45 -3 149 -10 231 -15z m-1536 -464 c10 -8 12 -27 8 -80 l-6
-69 60 6 c76 7 85 -6 58 -83 -11 -30 -17 -61 -14 -67 2 -8 23 -13 50 -13 40 0
47 -3 56 -27 12 -32 4 -88 -17 -120 -11 -18 -24 -23 -54 -23 -35 0 -43 5 -61
33 -19 31 -20 56 -3 114 6 21 4 22 -24 17 -26 -5 -37 -1 -63 25 -32 32 -34 46
-14 108 6 20 4 21 -32 16 -29 -4 -44 0 -63 15 -22 18 -25 28 -24 81 2 80 12
91 77 84 29 -3 58 -11 66 -17z m287 -32 c9 -36 -2 -94 -24 -124 -29 -38 -66
-38 -103 2 -28 30 -30 38 -25 81 3 26 8 52 11 57 3 6 35 10 70 10 61 0 65 -1
71 -26z m733 -38 c10 -7 12 -24 8 -72 l-6 -64 42 -2 c23 0 49 -1 59 0 31 3 40
-22 24 -69 -27 -83 -28 -82 39 -94 l60 -10 -1 -60 c-1 -51 -5 -62 -28 -82 -34
-29 -58 -29 -91 0 -34 28 -46 98 -21 122 21 21 11 38 -14 25 -25 -13 -62 2
-83 34 -20 29 -22 87 -5 104 16 16 2 28 -16 13 -22 -18 -74 -4 -93 25 -17 27
-13 115 6 138 11 13 94 7 120 -8z m245 -12 c58 -8 69 -29 50 -94 -14 -48 -44
-80 -76 -80 -25 0 -98 79 -98 106 0 28 37 74 59 74 10 0 39 -3 65 -6z m-914
-132 c0 -39 -29 -132 -40 -132 -16 0 -8 69 16 148 7 23 24 12 24 -16z m-391
-80 c12 -23 -22 -132 -49 -154 -25 -20 -56 -14 -93 21 -26 24 -28 30 -22 75
10 78 13 81 89 78 49 -3 68 -8 75 -20z m1024 -61 c10 -10 -30 -136 -49 -156
-22 -22 -48 -19 -84 12 -31 25 -32 29 -26 79 10 83 8 82 84 77 37 -3 70 -9 75
-12z m-1490 -447 c-4 -44 18 -60 65 -48 30 7 38 14 40 37 3 24 8 27 38 27 38
0 54 -21 35 -44 -17 -20 11 -38 69 -44 47 -4 49 -3 55 24 12 54 15 58 27 46 8
-8 8 -15 -1 -26 -15 -18 -7 -34 25 -46 29 -12 54 -3 54 18 0 13 3 12 15 -5 20
-29 53 -35 75 -13 17 17 18 17 34 -1 9 -11 31 -20 51 -21 19 -1 42 -2 51 -2
10 -1 21 12 28 33 14 43 38 60 60 42 10 -8 13 -22 10 -41 -7 -31 -3 -35 48
-44 34 -6 37 -5 55 31 14 29 25 39 47 41 28 4 29 3 23 -35 -4 -21 -7 -45 -7
-55 0 -14 -12 -16 -102 -12 -116 5 -204 9 -458 19 -96 3 -181 9 -189 11 -8 3
-58 9 -111 14 -53 5 -108 14 -122 19 -25 9 -25 11 -15 61 l10 51 46 -3 c45 -3
46 -4 44 -34z m437 -13 c0 -6 -4 -13 -10 -16 -5 -3 -10 1 -10 9 0 9 5 16 10
16 6 0 10 -4 10 -9z m95 -11 c3 -5 1 -10 -4 -10 -6 0 -11 5 -11 10 0 6 2 10 4
10 3 0 8 -4 11 -10z m-510 -96 c28 -3 86 -8 130 -11 62 -4 85 -10 103 -26 12
-11 22 -26 22 -34 0 -17 -30 -17 -30 0 0 6 -5 4 -11 -6 -6 -9 -15 -15 -20 -11
-6 3 -54 8 -107 10 -104 4 -229 22 -236 32 -2 4 -2 20 1 35 5 26 7 27 52 22
25 -3 69 -7 96 -11z m481 -49 c8 -11 13 -12 22 -3 9 9 12 4 12 -21 0 -28 -2
-31 -14 -22 -11 9 -16 9 -22 0 -7 -12 -144 -6 -179 7 -16 6 -21 45 -7 58 12
13 176 -4 188 -19z m376 -13 c5 -5 4 -20 -1 -34 l-9 -25 -133 4 c-73 2 -141 9
-151 14 -18 10 -24 39 -11 53 10 10 295 -2 305 -12z m-943 -28 c24 -5 31 -12
31 -30 0 -12 -4 -26 -10 -29 -5 -3 -10 -19 -10 -35 0 -34 -9 -60 -20 -60 -16
0 -48 66 -54 113 -8 52 -4 54 63 41z m420 -47 c22 -18 31 -56 25 -98 -6 -33
-10 -40 -25 -36 -11 3 -19 1 -19 -5 0 -9 -64 -6 -137 8 -43 8 -55 35 -42 93 5
23 7 45 5 49 -7 12 178 1 193 -11z m199 -7 c43 0 52 -3 52 -18 0 -10 4 -22 9
-27 23 -26 18 -97 -6 -82 -5 3 -17 -3 -26 -14 -10 -11 -21 -18 -25 -15 -5 3
-28 6 -53 7 -24 1 -56 8 -71 16 -23 11 -28 20 -28 53 0 21 5 51 10 66 10 24
14 26 48 20 20 -3 61 -6 90 -6z m305 -17 c7 -11 -60 -113 -74 -113 -12 0 -3
72 13 103 9 17 53 24 61 10z m-731 -137 c15 9 48 -41 48 -72 0 -40 -24 -46
-135 -33 -131 15 -124 11 -122 72 l2 53 100 -12 c55 -7 103 -10 107 -8z m367
-49 c9 -12 19 -31 22 -42 11 -38 1 -44 -69 -39 -66 5 -139 10 -195 13 -32 1
-51 37 -41 78 l7 25 130 -6 c119 -6 132 -8 146 -29z m263 -19 c25 -32 24 -61
-2 -53 -14 5 -20 2 -20 -9 0 -13 -13 -16 -64 -16 -36 0 -76 4 -90 10 -30 11
-42 49 -26 80 11 20 17 21 98 16 75 -5 89 -8 104 -28z m-828 -56 c3 -5 -2 -32
-10 -60 -14 -47 -17 -51 -35 -41 -18 9 -19 17 -14 52 4 23 9 45 12 50 6 10 41
9 47 -1z m212 -19 c133 -6 145 -8 158 -28 8 -12 16 -35 18 -51 3 -33 20 -31
-182 -21 -142 7 -150 9 -150 54 0 20 -4 32 -10 28 -5 -3 -10 -19 -10 -36 0
-20 -5 -29 -16 -29 -14 0 -15 7 -10 42 7 44 22 61 44 53 8 -3 78 -8 158 -12z
m385 -28 c57 -4 110 -8 117 -10 29 -10 2 -109 -27 -101 -9 3 -63 8 -121 12
-58 3 -115 10 -128 15 -22 8 -23 13 -17 47 8 42 21 54 51 47 12 -3 68 -7 125
-10z m756 -72 c-19 -79 -77 -169 -77 -118 0 8 -4 15 -10 15 -5 0 -9 -3 -7 -8
1 -4 -8 -18 -20 -32 -13 -13 -23 -27 -23 -32 0 -17 -21 -7 -32 16 -9 21 -7 29
13 55 13 16 29 30 36 30 23 1 34 36 18 57 -19 25 -19 44 0 44 8 0 17 -11 21
-24 3 -14 12 -27 20 -30 14 -5 44 18 44 34 0 5 5 21 10 36 18 45 21 20 7 -43z
m-570 12 c-1 -25 -6 -43 -12 -41 -14 5 -6 86 9 86 2 0 4 -20 3 -45z m-620 -47
c16 -13 17 -40 2 -55 -13 -13 -182 -6 -222 9 -18 7 -26 16 -23 25 4 8 6 22 6
30 0 14 14 15 112 9 62 -4 118 -12 125 -18z m88 -8 c-3 -5 -13 -10 -21 -10 -8
0 -14 5 -14 10 0 6 9 10 21 10 11 0 17 -4 14 -10z m158 -7 c2 -5 -8 -18 -24
-31 l-28 -22 -20 21 c-11 12 -18 26 -15 31 6 10 81 11 87 1z m-94 -53 c44 -48
63 -50 93 -10 12 17 27 30 34 30 17 0 35 -57 28 -86 -4 -15 -2 -24 5 -24 6 0
11 9 11 21 0 12 5 19 13 16 6 -2 11 -15 9 -28 -8 -80 -8 -111 2 -114 6 -2 56
-7 110 -10 55 -3 100 -6 101 -8 1 -1 9 -14 18 -29 24 -38 23 -72 -2 -65 -12 3
-22 -1 -25 -9 -4 -11 -23 -13 -87 -9 -90 5 -109 14 -109 56 0 15 -4 30 -9 33
-10 7 -21 -16 -21 -44 0 -22 -38 -33 -90 -26 -19 2 -74 7 -122 11 -84 7 -87 8
-97 35 -10 31 13 141 43 204 14 29 22 60 25 89 2 19 37 3 70 -33z m394 32 l57
-2 0 -36 0 -35 -66 2 c-95 3 -114 9 -126 35 -14 29 -28 31 -28 4 0 -11 -4 -20
-9 -20 -15 0 -19 13 -11 35 8 21 28 23 183 17z m-748 -59 c3 -10 1 -19 -4 -21
-6 -2 -11 -19 -11 -38 0 -22 -5 -34 -14 -34 -25 0 -37 26 -30 69 5 34 10 41
29 41 13 0 26 -8 30 -17z m213 -2 c7 -2 0 -63 -9 -85 -11 -23 -15 -24 -63 -19
-84 10 -99 19 -93 53 4 16 2 32 -2 35 -11 6 -21 -18 -21 -51 0 -13 -4 -24 -10
-24 -14 0 -13 43 2 76 12 26 12 26 103 21 49 -3 91 -6 93 -6z m503 -75 c10
-60 -11 -76 -80 -65 -62 10 -71 19 -71 72 l0 39 72 -4 73 -3 6 -39z m503 -1
c15 -31 15 -37 1 -64 -32 -63 -59 -46 -50 32 10 86 20 93 49 32z m-438 -29
c-8 -53 -26 -62 -26 -13 0 48 11 80 23 68 5 -5 7 -29 3 -55z m-602 -79 c7 -41
6 -50 -10 -62 -12 -9 -32 -13 -54 -10 -19 3 -64 7 -100 11 -36 3 -70 10 -77
16 -7 6 -10 29 -8 61 2 29 4 52 5 52 0 0 53 -4 117 -10 l118 -10 9 -48z m-238
-90 c8 -22 -11 -92 -26 -94 -32 -6 -39 10 -27 60 8 35 15 47 29 47 10 0 21 -6
24 -13z m179 -13 c55 -5 109 -7 120 -6 11 2 79 -4 150 -13 72 -8 162 -16 200
-18 69 -2 70 -2 73 -31 2 -15 1 -40 -3 -53 -5 -20 -10 -24 -30 -19 -13 3 -58
9 -99 12 -129 10 -83 -27 49 -41 132 -13 135 -14 135 -46 l0 -29 -76 0 c-80 0
-119 13 -110 36 3 8 2 14 -3 14 -16 0 -33 -29 -29 -52 3 -20 10 -24 63 -28
l60 -5 -2 -44 c-3 -59 -11 -65 -73 -52 -28 6 -70 11 -93 10 l-42 0 26 -20 c19
-15 46 -22 100 -25 106 -6 131 -15 140 -47 4 -15 4 -27 -1 -27 -4 0 -10 -8
-13 -19 -4 -17 -12 -18 -83 -14 -85 5 -103 14 -106 56 -3 36 -19 19 -28 -32
-8 -47 -3 -51 71 -51 57 0 63 -8 51 -65 l-8 -40 -45 5 c-75 7 -144 5 -149 -5
-7 -14 83 -29 235 -39 17 -1 20 -7 17 -41 -4 -64 -7 -67 -54 -61 -152 19 -138
13 -139 54 l-1 37 -16 -35 c-14 -31 -20 -36 -53 -37 -25 -1 -39 3 -43 13 -6
16 0 110 10 154 12 51 12 110 1 111 -7 1 -45 3 -85 4 -65 3 -72 1 -66 -14 10
-20 10 -67 -1 -151 -6 -49 -13 -71 -32 -89 -21 -20 -28 -22 -50 -12 -24 11
-25 15 -19 61 9 66 -13 90 -82 90 -57 0 -79 14 -85 55 l-4 30 -8 -32 c-4 -18
-11 -33 -16 -33 -15 0 -10 67 5 79 16 13 121 7 173 -10 18 -6 37 -8 41 -5 16
9 35 157 23 169 -6 6 -39 13 -73 15 -76 5 -88 14 -88 60 0 19 -3 32 -7 28 -5
-4 -8 -11 -9 -14 0 -4 -6 -18 -11 -32 -11 -24 -11 -24 -11 10 0 19 5 41 11 48
12 15 76 16 151 1 67 -14 75 -9 83 50 4 28 1 48 -10 65 -14 21 -24 24 -78 25
-71 0 -82 9 -74 61 5 33 4 34 -10 16 -8 -11 -15 -30 -15 -43 0 -13 -4 -23 -10
-23 -14 0 -12 56 3 81 7 12 19 18 32 15 11 -2 65 -8 120 -12z m1025 -5 c11 -8
12 -12 3 -16 -7 -2 -13 -11 -13 -18 0 -14 -27 -28 -34 -17 -8 13 6 62 18 62 6
0 18 -5 26 -11z m-410 -51 c0 -34 -14 -88 -22 -88 -5 0 -7 22 -6 50 2 32 8 50
16 50 6 0 12 -6 12 -12z m337 -155 c-20 -121 -37 -153 -37 -69 0 55 44 207 56
193 1 -1 -7 -57 -19 -124z m-960 75 c14 -11 17 -46 5 -64 -5 -8 -22 -9 -57 -3
-27 5 -81 12 -120 16 -72 8 -86 20 -71 60 6 14 21 15 118 9 61 -4 118 -11 125
-18z m-212 -87 c3 -5 0 -30 -7 -56 -10 -37 -16 -45 -33 -43 -17 3 -20 9 -18
43 2 22 5 46 8 53 5 14 41 16 50 3z m788 -108 c-7 -56 -9 -61 -24 -46 -15 15
-1 93 17 93 11 0 12 -11 7 -47z m-617 -44 c14 -11 12 -85 -2 -99 -6 -6 -22 -6
-39 -1 -17 4 -66 9 -110 10 -44 1 -84 6 -90 11 -6 5 -9 30 -7 55 l4 47 117 -7
c64 -4 121 -11 127 -16z m-223 -116 c3 -5 0 -29 -6 -55 -8 -34 -16 -48 -29
-48 -25 0 -27 10 -15 63 7 34 15 47 28 47 10 0 20 -3 22 -7z m793 -105 c-8
-46 -20 -66 -30 -49 -12 18 6 91 22 91 12 0 13 -8 8 -42z m-620 -51 c7 -8 8
-26 2 -54 l-9 -43 -107 6 c-129 7 -145 14 -131 51 5 14 7 35 3 46 -6 20 -4 20
112 13 71 -4 123 -12 130 -19z m-230 -121 c3 -8 0 -33 -6 -56 -8 -30 -16 -40
-28 -38 -13 3 -16 13 -15 43 2 22 5 46 8 53 6 16 34 15 41 -2z m254 -16 c19
-5 54 -10 77 -10 47 0 63 -17 63 -69 l0 -31 -52 5 c-29 3 -93 7 -143 10 -49 3
-111 8 -138 11 l-48 6 7 36 c11 60 17 64 113 58 47 -3 102 -10 121 -16z m474
-40 c5 -5 5 -29 2 -55 -7 -45 -8 -46 -39 -40 -18 3 -75 9 -127 12 -128 8 -134
10 -135 63 l0 42 145 -7 c80 -4 149 -11 154 -15z m68 -46 c-3 -39 -16 -63 -28
-51 -4 3 -3 27 0 52 9 57 32 56 28 -1z m-698 -30 c56 -5 69 -9 73 -25 5 -19
33 -27 33 -9 0 6 4 10 9 10 5 0 4 -11 -2 -25 -13 -27 -22 -31 -33 -14 -4 8 -9
7 -14 -2 -6 -9 -37 -12 -116 -10 -59 1 -112 5 -117 8 -11 7 0 65 14 74 7 4 28
5 48 3 20 -2 67 -6 105 -10z m330 -31 c75 -5 89 -9 93 -24 3 -11 9 -19 14 -19
5 0 9 -8 9 -18 0 -16 -6 -18 -52 -11 -29 4 -94 8 -144 8 -73 1 -94 4 -106 19
-12 12 -13 23 -7 41 9 22 13 23 57 17 26 -4 87 -9 136 -13z m340 -32 c15 -13
9 -61 -8 -62 -44 -3 -143 4 -162 11 -24 9 -33 47 -16 64 10 12 170 0 186 -13z
m-812 -43 c3 -7 0 -32 -4 -56 -8 -37 -13 -43 -31 -40 -18 2 -21 9 -19 31 5 44
20 77 36 77 7 0 16 -6 18 -12z m276 -13 c75 -7 84 -10 102 -35 25 -35 27 -65
4 -56 -9 3 -20 3 -26 0 -12 -8 -213 -4 -283 5 l-50 6 4 40 c1 22 5 43 7 47 5
8 108 4 242 -7z m382 -31 c30 -3 59 -10 64 -14 5 -5 5 -25 2 -46 l-7 -37 -135
5 c-76 3 -140 10 -147 17 -11 9 -14 46 -8 90 1 4 143 -5 231 -15z m142 -45
c-6 -51 -13 -70 -25 -66 -17 5 -20 38 -7 71 12 33 36 29 32 -5z"/>
<path d="M6773 7002 c-7 -12 -8 -24 -1 -36 6 -11 6 -21 -1 -30 -12 -14 4 -36
27 -36 8 0 12 -6 9 -13 -8 -20 41 -9 52 12 16 32 1 87 -29 104 -36 21 -43 21
-57 -1z"/>
<path d="M6404 6945 c-46 -33 -11 -125 48 -125 29 0 35 15 29 80 -4 45 -45 69
-77 45z"/>
<path d="M6780 6704 c0 -6 7 -19 15 -30 8 -10 14 -14 14 -9 0 6 -6 19 -14 29
-8 11 -15 15 -15 10z"/>
<path d="M5648 6733 c-24 -6 -23 -35 3 -68 18 -22 28 -26 50 -21 16 3 29 1 29
-4 0 -17 29 -11 39 9 9 16 5 23 -22 43 -32 25 -73 49 -79 47 -2 -1 -11 -3 -20
-6z"/>
<path d="M7030 5917 c-9 -9 -210 -38 -339 -48 -68 -6 -140 -14 -160 -18 l-36
-8 45 -6 c25 -4 135 -11 245 -17 110 -5 288 -16 395 -24 107 -8 260 -17 340
-20 80 -4 208 -11 285 -16 77 -5 185 -12 240 -14 55 -3 129 -8 165 -12 105
-11 62 9 -130 60 -259 67 -365 86 -600 107 -151 13 -443 23 -450 16z"/>
<path d="M8605 5670 c3 -5 8 -10 11 -10 2 0 4 5 4 10 0 6 -5 10 -11 10 -5 0
-7 -4 -4 -10z"/>
<path d="M7506 5541 c-11 -17 2 -31 29 -31 12 0 25 -7 29 -15 6 -17 -7 -93
-29 -167 -12 -42 -12 -50 0 -54 23 -9 31 2 45 63 38 172 31 158 78 161 28 2
42 8 42 17 0 20 -7 22 -101 30 -60 5 -89 4 -93 -4z"/>
<path d="M7875 5508 c-11 -33 -55 -225 -55 -241 0 -12 6 -17 18 -15 13 2 23
26 39 93 35 141 38 175 19 175 -9 0 -19 -6 -21 -12z"/>
<path d="M8106 5498 c-3 -7 -17 -66 -32 -131 -18 -82 -23 -122 -16 -129 19
-19 28 0 47 87 11 52 22 84 29 82 6 -2 19 -35 30 -73 28 -106 33 -114 61 -114
14 0 25 2 25 5 0 3 12 59 26 125 24 115 26 159 5 145 -6 -3 -20 -38 -32 -78
-13 -40 -26 -76 -29 -80 -7 -8 -26 39 -52 123 -10 34 -19 46 -36 48 -12 2 -24
-3 -26 -10z"/>
<path d="M8570 5470 c-63 -15 -120 -104 -120 -188 0 -47 43 -92 88 -92 21 0
46 7 56 15 17 13 22 13 38 -2 23 -21 32 -11 47 49 18 76 17 78 -39 78 -55 0
-62 -10 -25 -34 14 -9 25 -21 25 -26 0 -14 -55 -40 -84 -40 -85 0 -66 190 21
206 33 6 83 -15 83 -36 0 -6 11 -10 25 -10 29 0 31 11 9 45 -13 20 -64 47 -83
44 -3 -1 -22 -5 -41 -9z"/>
<path d="M8060 5068 c-11 -27 -51 -196 -75 -315 -43 -219 53 -352 247 -341 86
4 147 31 218 95 58 52 75 86 99 200 10 48 33 144 50 212 21 80 28 127 22 131
-6 3 -63 7 -128 8 -65 2 -180 9 -257 17 -174 19 -165 19 -176 -7z m154 -65
c17 -5 18 -12 13 -74 l-6 -69 66 0 c56 0 64 2 59 16 -13 34 5 83 37 99 28 14
137 21 149 10 10 -10 -13 -121 -31 -145 -25 -35 -61 -37 -91 -5 -26 27 -45 33
-37 11 3 -8 -3 -33 -14 -55 -10 -22 -19 -47 -19 -56 0 -22 -36 -55 -61 -55
-11 0 -34 14 -51 30 -30 30 -33 53 -17 109 3 10 -7 15 -38 16 -49 1 -77 23
-93 71 -10 28 -9 37 4 50 9 8 16 23 16 33 0 10 3 21 7 25 7 7 66 1 107 -11z
m-29 -280 c6 -38 -22 -140 -46 -169 -18 -22 -63 -17 -89 11 -24 26 -28 54 -16
118 l7 37 59 0 c53 0 60 2 60 20 0 35 18 22 25 -17z m263 -46 c16 -13 15 -70
-2 -112 -24 -58 -102 -61 -131 -5 -19 36 -19 59 0 84 8 11 15 28 15 37 0 16 7
17 53 12 28 -3 58 -10 65 -16z"/>
<path d="M7633 4242 c-7 -4 -17 -37 -22 -72 -6 -36 -16 -95 -22 -131 -12 -63
-11 -70 17 -155 l29 -89 -17 -85 c-10 -47 -22 -114 -27 -150 -16 -105 -58
-347 -102 -584 -22 -122 -47 -257 -54 -301 -8 -44 -30 -156 -50 -250 -20 -93
-40 -192 -45 -220 -6 -27 -15 -70 -20 -95 -19 -85 -21 -110 -8 -110 8 0 14 16
15 41 1 43 23 76 42 64 8 -4 9 -23 5 -54 -4 -35 -2 -50 9 -59 25 -21 42 -5 43
39 2 68 3 68 202 54 129 -9 141 -16 124 -72 -14 -46 -9 -53 36 -52 20 0 31 3
25 6 -18 7 -16 78 2 93 9 8 27 10 48 6 17 -4 61 -9 97 -12 170 -14 170 -13
150 -73 -13 -41 -8 -61 16 -61 10 0 14 12 14 38 1 61 50 101 63 50 4 -12 8
-20 11 -17 9 8 38 209 33 227 -3 9 -5 3 -6 -15 -1 -35 -11 -46 -35 -37 -24 9
-29 41 -10 79 18 39 28 43 42 19 16 -28 29 -7 36 53 3 32 8 75 12 96 6 35 5
37 -20 37 -21 0 -26 5 -26 24 0 14 5 37 10 51 9 23 13 25 25 15 8 -7 15 -20
16 -29 1 -29 21 31 31 94 18 113 21 158 9 151 -5 -4 -7 -14 -4 -22 4 -12 1
-15 -13 -12 -25 4 -30 56 -9 83 15 19 15 20 30 1 13 -18 14 -17 20 10 3 16 10
48 16 71 14 63 12 88 -5 74 -23 -19 -36 8 -26 53 11 49 16 53 39 32 18 -17 19
-17 24 1 3 10 8 43 12 73 4 40 3 51 -4 40 -6 -8 -11 -27 -11 -42 0 -26 -3 -28
-42 -27 -130 2 -178 23 -178 77 0 32 -24 23 -28 -11 -4 -32 -33 -50 -70 -43
-15 3 -65 8 -112 11 -113 8 -118 10 -129 51 -8 28 -5 50 10 102 27 90 70 182
84 182 7 0 28 -18 49 -40 20 -22 41 -40 45 -40 5 0 24 14 42 31 39 36 58 31
73 -20 5 -17 14 -31 20 -31 7 0 11 -26 11 -70 l0 -71 109 -4 c89 -2 112 -6
122 -20 19 -26 34 -9 34 38 0 37 -1 39 -13 22 -8 -10 -19 -15 -25 -11 -13 8
-16 64 -6 90 8 21 30 20 38 -1 11 -27 23 -3 35 68 14 82 14 110 2 90 -12 -19
-41 -6 -41 18 0 48 40 93 53 59 9 -25 25 7 31 62 6 53 -9 63 -16 10 -3 -24 -5
-25 -73 -22 -38 1 -85 7 -102 13 -30 9 -33 14 -33 49 0 21 6 42 13 47 6 4 53
6 102 5 71 -2 93 -6 103 -20 11 -15 14 -15 22 -2 13 20 13 50 0 50 -25 0 -4
125 23 142 17 11 65 10 72 -2 11 -18 23 -10 34 23 18 56 49 222 42 228 -12 13
-82 18 -79 7 2 -6 14 -12 26 -13 30 -2 30 -4 23 -55 l-6 -45 -53 0 c-29 -1
-56 3 -59 8 -2 4 -11 3 -19 -4 -8 -7 -27 -9 -48 -5 -31 6 -103 11 -311 21
-144 7 -303 23 -316 30 -7 5 -29 8 -49 7 -40 -3 -158 22 -172 36 -5 5 -5 26 0
48 7 36 11 39 47 44 30 4 35 7 22 13 -24 9 -59 9 -74 -1z m182 -164 c17 -4 59
-10 95 -13 l65 -4 0 -38 c0 -32 -3 -37 -20 -35 -11 2 -67 7 -125 12 -58 4
-129 11 -157 15 -49 6 -53 9 -53 34 0 15 3 31 6 34 10 9 153 6 189 -5z m433
-52 c13 -13 7 -66 -7 -66 -33 0 -178 23 -193 31 -18 10 -24 39 -10 53 11 12
195 -4 210 -18z m362 -14 c30 -7 35 -12 35 -37 l0 -30 -80 -3 c-88 -4 -233 14
-252 30 -7 6 -13 19 -13 28 0 10 6 21 13 23 17 7 254 -2 297 -11z m-911 -44
c22 -60 23 -86 2 -107 -12 -12 -21 -25 -21 -31 0 -18 -19 -11 -32 13 -14 25
-37 103 -38 130 0 13 8 17 40 17 33 0 42 -4 49 -22z m398 -35 c7 -9 13 -40 13
-69 0 -45 -4 -54 -26 -69 -14 -9 -32 -14 -40 -11 -8 3 -45 11 -82 16 -36 6
-72 16 -79 22 -16 13 -17 50 -3 100 l11 37 97 -4 c77 -4 99 -8 109 -22z m256
-13 c13 -12 27 -82 21 -105 -3 -11 -15 -27 -27 -36 -20 -14 -30 -15 -102 -3
-101 18 -110 26 -101 98 7 50 10 55 34 58 44 5 166 -3 175 -12z m-465 -152
c17 -14 15 -83 -2 -97 -8 -7 -29 -10 -48 -7 -18 3 -62 8 -97 11 -89 7 -106 25
-81 90 l10 26 103 -6 c56 -4 108 -12 115 -17z m350 -35 c20 -28 15 -81 -9 -93
-11 -7 -27 -9 -35 -6 -7 3 -62 10 -121 16 -59 6 -113 16 -120 22 -7 6 -13 29
-13 51 l0 40 143 -6 c117 -6 144 -10 155 -24z m-564 -107 c8 -34 -12 -88 -33
-84 -19 4 -25 29 -16 74 7 41 39 48 49 10z m241 -1 c17 -2 51 -4 76 -4 l47 -1
11 -46 c7 -26 9 -49 6 -52 -10 -10 -306 17 -321 29 -14 11 -20 70 -8 81 5 6
127 1 189 -7z m388 -31 c100 -6 101 -7 97 -54 -4 -50 -14 -57 -72 -49 -29 4
-83 8 -120 8 -93 1 -118 14 -118 62 0 43 8 48 70 43 25 -2 89 -6 143 -10z
m-555 -89 c72 -7 85 -11 92 -29 4 -11 3 -29 -2 -39 -7 -14 -16 -17 -41 -11
-18 4 -66 9 -107 13 -69 5 -75 8 -78 29 -4 28 12 49 35 47 10 -1 55 -6 101
-10z m162 -25 c-19 -13 -30 -13 -30 0 0 6 10 10 23 10 18 0 19 -2 7 -10z m183
1 c18 -2 3 -18 -33 -35 -40 -19 -41 -19 -55 0 -30 40 -23 43 88 35z m87 -21
c0 -5 -4 -10 -10 -10 -5 0 -10 5 -10 10 0 6 5 10 10 10 6 0 10 -4 10 -10z
m261 -16 c5 -3 9 -19 9 -36 l0 -31 -87 6 c-112 7 -123 11 -123 50 l0 30 96 -7
c53 -4 101 -9 105 -12z m-810 -46 c4 -47 -9 -98 -26 -98 -19 0 -27 32 -19 75
4 25 11 35 25 35 11 0 20 -6 20 -12z m217 -27 c5 -33 -28 -92 -48 -86 -8 3
-29 6 -45 8 -56 7 -75 24 -75 68 l0 40 83 -3 c78 -3 82 -4 85 -27z m501 -26
c6 -6 7 -29 4 -52 l-6 -43 -51 0 c-60 0 -91 18 -99 57 -8 45 9 56 80 51 35 -2
67 -8 72 -13z m-550 -90 c2 -2 6 -23 8 -47 4 -34 1 -47 -14 -60 -17 -16 -25
-16 -102 -3 -46 8 -87 13 -91 10 -13 -8 -42 26 -36 42 3 8 6 28 6 45 l0 31
112 -7 c62 -4 114 -9 117 -11z m-221 -161 c2 -17 -2 -43 -8 -58 -9 -24 -13
-26 -26 -15 -12 10 -14 23 -10 53 4 21 9 43 12 48 11 17 29 1 32 -28z m402 -5
c52 -6 111 -12 130 -14 19 -3 67 -5 107 -6 45 -1 76 -6 83 -14 14 -17 -11 -91
-30 -87 -7 2 -52 6 -99 8 l-86 5 25 -21 c21 -18 25 -31 25 -74 l0 -51 40 -3
c83 -5 87 -8 80 -55 -4 -23 -10 -45 -14 -49 -3 -4 -43 -2 -89 4 -45 6 -86 8
-89 4 -4 -3 4 -17 17 -31 19 -20 21 -27 11 -39 -7 -9 -15 -33 -17 -55 -4 -49
14 -63 81 -60 25 2 47 0 51 -3 3 -3 2 -27 -1 -53 -7 -44 -8 -46 -36 -40 -46
10 -159 14 -159 6 0 -4 8 -16 19 -25 14 -13 41 -17 119 -19 55 -1 104 -5 107
-9 4 -4 4 -28 0 -54 l-7 -47 -79 6 c-99 8 -119 18 -119 60 l-1 32 -15 -27 c-8
-16 -20 -28 -26 -28 -6 0 -17 -8 -24 -17 -12 -17 -14 -17 -34 3 -22 21 -22 21
-4 115 18 98 21 145 10 156 -3 4 -39 7 -79 8 l-73 1 0 -51 c-1 -108 -16 -195
-38 -210 -48 -34 -77 -5 -68 68 6 53 -15 73 -83 80 -70 7 -75 11 -75 53 0 44
15 50 102 38 38 -5 72 -7 77 -4 4 3 14 36 22 73 17 89 10 100 -67 107 -75 6
-84 13 -84 59 0 48 20 56 104 39 56 -11 60 -10 78 11 20 25 24 81 8 112 -8 14
-21 19 -55 19 -66 0 -95 17 -95 55 0 17 3 35 8 39 8 9 198 0 342 -15z m-242
-114 c13 -5 16 -53 4 -73 -5 -7 -15 -10 -23 -8 -25 9 -72 17 -132 21 -32 2
-62 7 -68 10 -11 8 -1 47 15 57 10 7 177 1 204 -7z m566 -47 c41 -1 52 -14 42
-53 -6 -23 -9 -24 -59 -19 -105 10 -117 14 -129 40 -16 34 3 45 63 39 25 -3
62 -6 83 -7z m-772 -93 c-3 -54 -10 -68 -31 -56 -14 9 -18 82 -6 101 4 6 14
10 23 8 14 -3 16 -14 14 -53z m160 -107 c9 -7 19 -32 23 -54 6 -37 4 -42 -16
-47 -13 -4 -41 -2 -64 3 -22 6 -67 11 -100 13 -54 2 -60 5 -63 26 -2 13 -1 34
2 47 6 23 9 24 104 24 63 0 104 -4 114 -12z m615 -60 c11 -11 13 -18 5 -18 -7
0 -12 -14 -12 -36 l0 -36 -82 6 c-44 3 -87 11 -93 16 -17 14 -24 55 -12 75 13
24 168 18 194 -7z m-820 -98 c-7 -54 -25 -76 -44 -57 -22 21 2 97 30 97 17 0
19 -5 14 -40z m161 -112 c7 -7 12 -31 12 -54 0 -49 -19 -62 -65 -44 -15 6 -59
11 -97 12 -78 1 -91 12 -76 66 l9 32 102 0 c67 0 107 -4 115 -12z m-219 -121
c6 -8 13 -27 16 -43 5 -24 2 -31 -21 -41 -37 -17 -47 -7 -40 40 10 59 22 71
45 44z m269 -21 l97 -12 9 -37 c15 -57 3 -63 -97 -50 -45 6 -109 12 -142 13
-70 1 -85 11 -85 56 0 56 7 57 218 30z m411 -31 c53 -4 61 -15 48 -66 l-10
-40 -56 6 c-31 3 -91 7 -134 9 -43 3 -85 10 -93 16 -14 13 -20 71 -7 84 6 6
119 2 252 -9z m-521 -98 c7 -6 12 -22 10 -36 -3 -26 -4 -26 -78 -23 -41 2 -91
5 -110 7 -19 2 -38 4 -42 4 -11 1 -10 29 2 52 10 18 18 19 108 13 53 -4 103
-11 110 -17z m355 -27 c5 -4 7 -20 5 -36 -3 -33 9 -31 -162 -20 -54 3 -107 11
-117 17 -19 10 -25 39 -11 53 9 10 274 -3 285 -14z m260 -28 c8 -7 12 -22 9
-38 -4 -24 -7 -25 -77 -23 -92 2 -135 19 -135 53 0 13 5 26 10 28 23 7 179 -9
193 -20z"/>
<path d="M7995 3030 c-5 -8 -25 -10 -68 -5 -60 7 -60 7 -52 -16 12 -34 8 -104
-9 -174 -8 -33 -16 -73 -18 -90 -3 -30 -3 -30 66 -39 78 -10 82 -7 91 64 4 25
11 65 16 90 17 78 16 147 -2 166 -12 12 -19 13 -24 4z"/>
<path d="M7732 4229 c2 -7 10 -15 17 -17 8 -3 12 1 9 9 -2 7 -10 15 -17 17 -8
3 -12 -1 -9 -9z"/>
<path d="M7810 4185 c-15 -45 -22 -49 -54 -24 -20 16 -26 17 -26 6 0 -23 26
-39 57 -35 22 2 30 10 39 36 6 19 17 38 25 43 11 7 9 9 -8 9 -16 0 -24 -9 -33
-35z"/>
<path d="M7910 4210 c0 -5 5 -10 11 -10 5 0 7 5 4 10 -3 6 -8 10 -11 10 -2 0
-4 -4 -4 -10z"/>
<path d="M8026 4185 c-3 -9 -6 -22 -5 -28 0 -7 5 -1 10 12 5 13 8 26 5 28 -2
2 -6 -3 -10 -12z"/>
<path d="M8170 4190 c0 -5 5 -10 10 -10 6 0 10 5 10 10 0 6 -4 10 -10 10 -5 0
-10 -4 -10 -10z"/>
<path d="M8130 4179 c0 -5 5 -7 10 -4 6 3 10 8 10 11 0 2 -4 4 -10 4 -5 0 -10
-5 -10 -11z"/>
<path d="M8240 4174 c0 -8 5 -12 10 -9 6 4 8 11 5 16 -9 14 -15 11 -15 -7z"/>
<path d="M8275 4180 c3 -5 11 -10 16 -10 6 0 7 5 4 10 -3 6 -11 10 -16 10 -6
0 -7 -4 -4 -10z"/>
<path d="M8394 4166 c-3 -8 -4 -22 -2 -30 2 -11 6 -9 15 9 6 15 7 27 2 31 -5
3 -12 -2 -15 -10z"/>
<path d="M8486 4171 c-3 -5 1 -14 9 -21 12 -10 15 -10 15 3 0 19 -16 31 -24
18z"/>
<path d="M8576 4163 c-11 -11 -6 -23 8 -23 8 0 17 4 20 9 7 10 -19 23 -28 14z"/>
<path d="M8120 4150 c0 -5 5 -10 11 -10 5 0 7 5 4 10 -3 6 -8 10 -11 10 -2 0
-4 -4 -4 -10z"/>
<path d="M7916 4135 c4 -8 13 -15 21 -15 13 0 13 3 3 15 -7 8 -16 15 -21 15
-5 0 -6 -7 -3 -15z"/>
<path d="M8066 4141 c-11 -18 3 -31 32 -31 25 1 26 1 7 12 -11 6 -23 16 -26
21 -4 5 -9 5 -13 -2z"/>
<path d="M8165 4131 c-3 -5 5 -17 17 -25 42 -29 54 -13 13 17 -13 9 -26 13
-30 8z"/>
<path d="M8270 4125 c0 -8 9 -19 21 -25 20 -11 20 -11 4 14 -20 30 -25 32 -25
11z"/>
<path d="M8490 4101 c0 -13 28 -33 41 -29 6 2 0 12 -15 21 -14 10 -26 13 -26
8z"/>
<path d="M7128 3785 c-10 -13 -18 -28 -18 -33 0 -18 -47 -53 -63 -46 -20 7
-21 3 -6 -30 7 -14 21 -26 33 -28 15 -2 22 -12 27 -41 3 -20 9 -41 13 -45 13
-12 36 30 36 64 0 18 5 36 11 39 6 4 7 19 4 37 -5 20 -3 33 5 38 9 6 10 16 3
36 -12 36 -24 39 -45 9z"/>
<path d="M7213 3575 c-19 -21 -15 -36 16 -73 37 -43 49 -26 16 22 -13 20 -22
43 -19 51 8 19 3 19 -13 0z"/>
<path d="M7031 3564 c0 -11 3 -14 6 -6 3 7 2 16 -1 19 -3 4 -6 -2 -5 -13z"/>
<path d="M7120 3525 c0 -10 42 -46 47 -41 4 3 -4 15 -17 26 -24 21 -30 24 -30
15z"/>
<path d="M7006 3355 c9 -49 13 -57 24 -50 16 10 12 31 -10 56 l-20 24 6 -30z"/>
<path d="M7905 3341 c-28 -55 -47 -123 -37 -133 19 -19 81 -27 93 -12 22 27
22 106 0 142 -25 40 -36 40 -56 3z"/>
<path d="M8050 3340 c-12 -12 -20 -33 -20 -55 0 -22 -6 -38 -15 -41 -18 -7
-20 -38 -2 -51 6 -6 29 -13 50 -17 33 -6 38 -4 46 18 9 21 9 56 3 128 -1 10
-11 22 -22 28 -15 8 -24 6 -40 -10z"/>
<path d="M7173 3320 c-4 -24 -10 -29 -24 -25 -17 6 -19 1 -19 -36 0 -23 -3
-39 -7 -36 -13 14 -35 -51 -36 -112 -1 -41 -7 -66 -15 -69 -9 -3 -12 13 -12
56 0 64 -6 78 -27 60 -10 -8 -17 -7 -27 7 -7 10 -18 15 -24 11 -8 -5 -4 -19
14 -46 20 -30 25 -49 22 -80 -2 -29 0 -39 9 -36 7 3 14 -7 18 -25 4 -17 12
-28 18 -26 17 5 56 106 57 144 0 19 7 37 18 45 29 20 53 63 46 81 -3 9 -2 22
2 28 5 9 10 5 16 -10 12 -34 27 -15 21 27 -11 73 -39 96 -50 42z"/>
<path d="M6930 3238 c0 -9 5 -20 11 -23 17 -11 20 0 4 21 -13 17 -14 17 -15 2z"/>
<path d="M7055 3237 c-4 -10 -5 -21 -1 -24 10 -10 18 4 13 24 -4 17 -4 17 -12
0z"/>
<path d="M6960 3116 c0 -9 5 -16 10 -16 6 0 10 4 10 9 0 6 -4 13 -10 16 -5 3
-10 -1 -10 -9z"/>
<path d="M6960 2923 c-12 -26 -36 -60 -54 -75 l-31 -26 78 -74 c43 -41 80 -71
82 -67 3 3 -4 25 -15 47 -24 49 -25 61 -6 76 19 14 7 129 -16 152 -14 14 -17
11 -38 -33z m25 -104 c0 -32 -4 -44 -15 -44 -17 0 -25 35 -15 72 10 40 30 21
30 -28z"/>
<path d="M8201 1954 c0 -11 3 -14 6 -6 3 7 2 16 -1 19 -3 4 -6 -2 -5 -13z"/>
<path d="M7906 1741 c-21 -23 -20 -29 40 -157 48 -105 69 -117 69 -41 0 37 6
51 29 75 24 26 33 30 63 25 30 -5 35 -3 32 12 -3 11 -39 33 -99 61 -52 23
-100 43 -106 43 -6 1 -19 -8 -28 -18z m84 -56 c31 -16 34 -23 24 -49 -10 -25
-32 -19 -49 14 -15 30 -19 50 -10 50 4 0 19 -7 35 -15z"/>
<path d="M7734 1561 c-11 -5 -34 -25 -52 -45 -26 -30 -32 -45 -32 -82 0 -76
52 -144 109 -144 36 0 87 33 106 70 8 16 22 30 30 30 7 0 17 5 20 10 8 12 -45
100 -60 100 -14 -1 -65 -47 -65 -60 0 -13 17 -13 25 0 11 17 35 -9 35 -37 0
-30 -42 -73 -71 -73 -11 0 -36 15 -55 34 -28 28 -34 41 -34 78 0 54 28 85 80
90 23 2 35 8 35 18 0 17 -40 23 -71 11z"/>
<path d="M7476 1357 c-17 -12 -17 -21 -5 -129 6 -64 15 -122 19 -129 13 -20
43 -2 37 22 -8 30 1 46 39 70 32 19 36 20 59 5 26 -17 55 -12 55 9 0 15 -160
165 -176 165 -5 0 -18 -6 -28 -13z m84 -115 c-1 -17 -19 -34 -33 -29 -15 6
-27 53 -19 77 4 10 12 5 28 -14 13 -15 24 -30 24 -34z"/>
<path d="M7249 1235 c-63 -23 -99 -45 -99 -61 0 -21 60 -196 73 -212 7 -8 13
-9 22 -2 9 8 10 21 2 55 -12 50 -1 72 38 75 38 4 45 0 62 -35 10 -21 24 -35
35 -35 25 0 23 28 -7 84 -17 31 -23 55 -19 72 8 32 -20 74 -49 73 -12 0 -38
-6 -58 -14z m51 -39 c19 -23 8 -58 -25 -77 -40 -24 -42 -23 -60 11 -22 43 -19
56 18 68 45 14 53 14 67 -2z"/>
<path d="M6953 1133 c-51 -15 -53 -17 -53 -52 1 -71 26 -205 39 -209 16 -5
100 17 128 34 13 8 29 27 37 43 14 26 13 32 -5 67 -12 23 -18 50 -15 65 7 36
-18 69 -52 68 -15 0 -51 -8 -79 -16z m85 -50 c3 -23 -30 -53 -60 -53 -22 0
-43 42 -34 65 4 12 16 15 48 13 35 -2 44 -7 46 -25z m19 -99 c12 -18 11 -24
-4 -42 -11 -13 -32 -23 -52 -24 -30 -3 -35 1 -42 25 -10 37 -3 55 24 60 39 8
59 3 74 -19z"/>
<path d="M6628 1072 l-67 -3 -10 -37 c-5 -20 -11 -80 -13 -132 l-3 -95 55 2
c30 1 67 2 83 2 17 1 27 6 27 16 0 10 -15 15 -56 17 -64 3 -81 19 -70 61 6 25
10 27 61 27 29 0 56 4 59 9 9 13 -19 32 -38 25 -25 -10 -64 4 -71 25 -12 39 4
51 65 51 33 0 61 4 64 9 11 17 -20 26 -86 23z"/>
<path d="M5800 3505 c0 -8 -11 -39 -24 -70 -21 -47 -23 -57 -11 -69 18 -17 85
-30 96 -19 14 14 14 125 0 151 -13 25 -61 31 -61 7z"/>
<path d="M5925 3468 c-32 -78 -35 -88 -29 -102 6 -16 55 -36 88 -36 29 0 50
49 47 110 -1 20 -3 22 -11 10 -8 -12 -10 -11 -10 7 0 26 -25 53 -49 53 -12 0
-24 -15 -36 -42z"/>
<path d="M5770 3177 c0 -5 5 -17 10 -28 8 -14 6 -39 -5 -92 -31 -140 -34 -157
-29 -170 5 -14 22 -17 99 -20 l40 -2 13 65 c28 140 31 157 31 203 1 26 -2 47
-6 48 -60 5 -153 2 -153 -4z"/>
<path d="M7314 7525 c3 -27 8 -79 12 -115 6 -62 43 -150 63 -150 14 0 23 34
11 38 -22 8 -48 44 -54 75 -3 18 -8 64 -12 102 -4 39 -11 77 -16 85 -6 10 -7
-3 -4 -35z"/>
<path d="M8481 7464 c0 -11 3 -14 6 -6 3 7 2 16 -1 19 -3 4 -6 -2 -5 -13z"/>
<path d="M8480 7340 c-4 -77 -2 -103 13 -139 17 -40 20 -42 35 -27 15 14 14
18 -9 42 -21 22 -25 37 -29 122 l-6 97 -4 -95z"/>
<path d="M6120 7350 c0 -7 9 -47 21 -89 21 -77 51 -132 65 -119 4 4 2 13 -3
20 -6 7 -25 53 -42 102 -32 91 -41 110 -41 86z"/>
<path d="M6220 7126 c0 -31 11 -39 26 -18 18 23 17 29 -6 35 -16 4 -20 0 -20
-17z"/>
<path d="M9790 7128 c0 -7 16 -23 36 -36 31 -20 34 -26 28 -56 -5 -30 -2 -37
31 -61 29 -23 38 -26 48 -15 9 10 9 14 -2 18 -8 3 -26 16 -39 29 -18 18 -22
27 -13 36 20 20 12 36 -31 67 -45 33 -58 37 -58 18z"/>
<path d="M7497 7053 c-3 -5 -7 -26 -11 -48 -5 -38 -4 -41 31 -63 41 -26 51
-21 60 31 7 46 -17 87 -52 87 -13 0 -26 -3 -28 -7z"/>
<path d="M7871 7029 c-16 -18 -18 -26 -9 -52 16 -46 56 -81 74 -66 29 24 14
111 -22 128 -20 9 -27 7 -43 -10z"/>
<path d="M9960 7020 c0 -6 13 -18 29 -27 42 -24 54 -48 39 -74 -12 -18 -9 -24
26 -55 39 -33 66 -44 66 -24 0 5 -13 16 -30 25 -36 19 -57 52 -41 68 20 20 12
36 -31 67 -43 32 -58 37 -58 20z"/>
<path d="M9737 7013 c-4 -3 -7 -13 -7 -22 1 -13 3 -13 11 2 11 19 8 33 -4 20z"/>
<path d="M9710 6950 c-6 -11 -7 -20 -2 -20 6 0 12 9 15 20 3 11 3 20 1 20 -2
0 -8 -9 -14 -20z"/>
<path d="M8577 6902 c-9 -10 -19 -32 -23 -49 -5 -27 -2 -32 31 -51 20 -12 38
-22 40 -22 6 0 18 36 22 72 3 29 -1 39 -19 52 -28 20 -31 20 -51 -2z"/>
<path d="M9684 6896 c-4 -11 8 -32 40 -66 25 -27 46 -54 46 -61 0 -7 9 -9 21
-6 16 4 52 -14 130 -65 60 -39 109 -75 109 -80 0 -16 152 -79 174 -72 20 7 20
8 -4 18 -14 6 -43 23 -65 38 -66 46 -84 57 -247 164 -86 57 -166 113 -177 125
-18 20 -21 20 -27 5z"/>
<path d="M10190 6851 c42 -37 60 -43 60 -21 0 13 -71 60 -90 60 -8 0 4 -17 30
-39z"/>
<path d="M9610 6811 c0 -6 5 -13 10 -16 6 -3 10 1 10 9 0 9 -4 16 -10 16 -5 0
-10 -4 -10 -9z"/>
<path d="M8927 6790 c-18 -26 -1 -83 32 -107 27 -18 36 -11 49 39 9 32 7 41
-10 63 -24 30 -52 32 -71 5z"/>
<path d="M5363 6760 c0 -25 2 -35 4 -22 2 12 2 32 0 45 -2 12 -4 2 -4 -23z"/>
<path d="M10207 6787 c-3 -8 -2 -18 1 -24 9 -12 84 -63 94 -63 19 0 5 19 -32
44 -22 14 -40 33 -40 41 0 19 -16 20 -23 2z"/>
<path d="M10367 6744 c-3 -4 12 -20 33 -35 38 -28 51 -49 30 -49 -5 0 -42 -15
-82 -34 -40 -18 -83 -37 -95 -40 -13 -4 -23 -11 -23 -16 0 -10 46 4 65 19 5 5
28 14 50 21 22 7 58 20 80 30 22 10 45 19 52 21 18 6 5 21 -49 57 -50 35 -52
35 -61 26z"/>
<path d="M5460 6618 c0 -7 7 -22 15 -32 16 -21 18 -15 9 22 -7 23 -24 31 -24
10z"/>
<path d="M9986 6585 c-15 -11 -16 -15 -5 -15 8 0 24 7 35 15 14 11 15 14 4 14
-8 0 -24 -6 -34 -14z"/>
<path d="M5510 6488 c0 -15 5 -30 10 -33 13 -8 13 25 0 45 -8 12 -10 9 -10
-12z"/>
<path d="M9606 6452 c-20 -14 -36 -29 -36 -33 0 -4 12 -17 26 -28 30 -23 53
-17 79 23 34 51 -14 78 -69 38z"/>
<path d="M5551 6392 c-1 -8 6 -38 14 -67 9 -29 14 -59 13 -66 -4 -17 31 -24
37 -7 3 8 -10 45 -29 83 -19 39 -35 64 -35 57z"/>
<path d="M5490 5895 c0 -8 5 -15 10 -15 6 0 10 7 10 15 0 8 -4 15 -10 15 -5 0
-10 -7 -10 -15z"/>
</g>
</svg>
