<?xml version="1.0" standalone="no"?>
<!DOCTYPE svg PUBLIC "-//W3C//DTD SVG 20010904//EN"
 "http://www.w3.org/TR/2001/REC-SVG-20010904/DTD/svg10.dtd">
<svg version="1.0" xmlns="http://www.w3.org/2000/svg"
 width="1440.000000pt" height="810.000000pt" viewBox="0 0 1440.000000 810.000000"
 preserveAspectRatio="xMidYMid meet">

<g transform="translate(0.000000,810.000000) scale(0.100000,-0.100000)"
fill="#000000" stroke="none">
<path d="M0 4050 l0 -4050 7200 0 7200 0 0 4050 0 4050 -7200 0 -7200 0 0
-4050z m6914 1330 c11 -32 22 -57 26 -55 4 3 13 24 19 47 6 24 15 49 20 56 8
14 48 13 44 -1 -2 -4 -3 -47 -3 -97 0 -72 -3 -90 -15 -90 -10 0 -15 15 -17 58
l-3 57 -14 -40 c-7 -22 -17 -44 -22 -49 -12 -14 -37 11 -44 45 -9 41 -20 27
-20 -24 0 -32 -4 -42 -17 -45 -16 -3 -18 7 -18 97 0 98 1 101 23 101 18 0 25
-10 41 -60z m295 -22 c12 -46 25 -91 28 -100 4 -13 0 -18 -16 -18 -14 0 -21 6
-21 20 0 16 -7 20 -34 20 -26 0 -36 -5 -41 -20 -7 -22 -35 -28 -35 -7 0 10 17
76 46 175 2 6 14 12 27 12 20 0 25 -9 46 -82z m141 -19 c0 -87 -2 -100 -16
-97 -13 2 -16 19 -15 96 0 50 0 94 1 97 0 3 7 5 15 5 12 0 15 -18 15 -101z
m156 41 c16 -33 32 -60 37 -60 4 0 7 27 7 60 0 47 3 60 15 60 12 0 15 -18 15
-100 0 -92 -2 -100 -19 -100 -14 0 -28 17 -48 60 -15 33 -31 60 -35 60 -5 0
-8 -27 -8 -60 0 -47 -3 -60 -15 -60 -12 0 -15 18 -15 100 0 90 2 100 18 100
13 0 28 -19 48 -60z m380 43 c7 -10 14 -24 14 -30 0 -18 -27 -16 -34 3 -7 19
-51 15 -51 -5 0 -8 18 -24 40 -35 33 -17 41 -27 43 -54 2 -18 -2 -40 -9 -48
-14 -17 -80 -19 -97 -2 -17 17 -15 48 3 48 8 0 15 -6 15 -14 0 -15 27 -25 48
-19 26 10 11 42 -30 65 -46 25 -57 52 -38 87 14 27 77 29 96 4z m216 0 c22
-20 24 -71 3 -100 -9 -13 -28 -23 -48 -25 -27 -2 -32 -7 -32 -28 0 -15 -7 -26
-18 -28 -15 -3 -17 7 -17 97 l0 101 47 0 c29 0 53 -6 65 -17z m209 -5 c14 -15
19 -37 19 -77 0 -77 -18 -101 -75 -101 -57 0 -75 24 -75 98 0 72 21 101 74
102 27 0 44 -6 57 -22z m164 -38 c16 -33 32 -60 37 -60 4 0 8 27 8 60 0 47 3
60 15 60 12 0 15 -18 15 -100 0 -93 -1 -100 -20 -100 -14 0 -27 16 -47 60 -15
32 -31 59 -35 60 -5 0 -8 -27 -8 -60 0 -47 -3 -60 -15 -60 -12 0 -15 18 -15
100 0 90 2 100 18 100 13 0 28 -19 47 -60z m260 40 c15 -16 16 -23 6 -33 -10
-9 -14 -8 -22 6 -14 24 -59 23 -59 -2 0 -13 11 -23 35 -31 38 -13 55 -35 55
-72 0 -33 -18 -48 -59 -48 -36 0 -71 23 -71 47 0 20 23 16 43 -7 14 -17 21
-18 37 -10 30 16 24 39 -15 56 -19 8 -42 25 -51 39 -15 23 -15 27 0 50 21 32
74 34 101 5z m220 0 c11 -12 20 -41 23 -73 5 -71 -21 -107 -79 -107 -34 0 -42
5 -59 33 -11 17 -20 48 -20 67 0 19 9 50 20 68 17 27 25 32 58 32 26 0 45 -7
57 -20z m215 1 c13 -26 13 -64 -1 -78 -8 -8 -8 -17 0 -31 6 -11 11 -32 11 -46
0 -39 -27 -32 -34 9 -6 29 -11 35 -31 35 -22 0 -25 -5 -25 -35 0 -28 -4 -35
-20 -35 -19 0 -20 7 -20 100 l0 100 55 0 c43 0 56 -4 65 -19z m-3022 -1368
l-3 -1308 -32 -3 -33 -3 0 1310 0 1311 35 0 35 0 -2 -1307z m-1713 1287 c4 -6
15 -8 25 -5 10 3 30 3 44 -1 20 -5 26 -12 26 -33 0 -33 -35 -111 -50 -111 -8
0 -7 -6 0 -21 7 -11 9 -26 7 -34 -4 -9 9 -14 40 -19 74 -10 82 -8 89 19 3 14
11 25 17 25 5 0 2 8 -7 19 -11 12 -18 38 -19 77 l-2 59 65 -1 c78 -2 229 -29
243 -43 6 -6 22 -11 35 -11 32 0 62 -17 62 -36 0 -16 -46 -93 -66 -109 -6 -5
-14 -24 -16 -41 -4 -29 -1 -31 53 -51 l57 -21 21 29 c11 15 18 35 15 43 -3 8
2 40 10 70 13 45 21 56 37 56 24 0 184 -74 194 -89 3 -6 16 -11 28 -11 27 0
67 -26 67 -43 0 -16 -111 -87 -136 -87 -11 0 -26 -13 -36 -30 -9 -17 -23 -30
-31 -30 -13 0 -107 -131 -107 -149 0 -5 7 -14 15 -21 22 -18 19 -67 -5 -87
-11 -10 -20 -29 -20 -43 0 -14 -4 -30 -10 -36 -5 -5 -10 -238 -13 -584 -4
-655 -1 -635 -93 -820 -40 -80 -62 -109 -138 -185 -73 -73 -107 -99 -176 -133
-294 -144 -629 -94 -850 128 -88 89 -149 187 -193 314 l-32 91 -3 584 c-2 491
-5 587 -17 605 -8 11 -15 30 -15 42 0 11 -9 29 -20 39 -11 10 -20 29 -20 42 0
12 9 32 20 43 11 11 20 22 20 25 0 16 -93 140 -112 149 -13 6 -27 21 -33 34
-5 12 -19 22 -30 22 -31 0 -135 69 -135 89 0 17 37 41 62 41 6 0 19 6 27 14 9
7 57 32 108 54 73 32 94 38 102 28 18 -22 41 -110 31 -120 -5 -5 0 -21 13 -40
12 -17 22 -32 23 -34 1 -1 28 8 60 20 55 22 59 25 59 56 0 22 -5 34 -17 38
-18 5 -68 87 -68 110 0 16 31 34 58 34 10 0 32 6 48 14 37 19 151 38 234 40
l65 1 -3 -59 c-1 -33 -7 -65 -13 -72 -15 -18 10 -74 32 -74 53 0 107 14 102
26 -2 7 0 21 5 30 7 13 6 21 -4 29 -8 5 -23 35 -34 65 -19 52 -19 56 -3 68 11
8 31 11 50 8 18 -2 35 0 38 5 8 13 212 12 220 -1z m3417 -470 c145 -28 310
-122 425 -243 89 -94 177 -237 146 -237 -5 0 -30 7 -57 15 -27 8 -66 15 -86
15 -33 0 -41 6 -82 59 -132 169 -377 271 -583 242 -172 -24 -272 -75 -402
-208 -80 -80 -97 -93 -126 -93 -18 0 -57 -7 -86 -16 -29 -8 -55 -13 -57 -11
-6 5 37 84 79 147 39 58 139 157 198 197 188 129 407 175 631 133z m8 -307
c25 -10 64 -28 86 -40 48 -26 154 -120 154 -137 0 -6 -27 -34 -59 -63 l-58
-52 -52 49 c-71 66 -142 94 -246 94 -67 1 -90 -3 -140 -27 -33 -15 -81 -49
-107 -74 l-46 -46 -39 40 c-21 21 -49 46 -62 54 l-25 16 22 30 c45 64 166 140
265 168 72 21 246 14 307 -12z m2964 -49 c14 -5 16 -29 16 -165 l0 -159 46 35
c56 43 80 50 169 50 103 -1 173 -44 221 -135 17 -31 19 -64 22 -292 l3 -258
-70 0 -69 0 -4 223 c-3 207 -5 224 -25 256 -33 51 -69 71 -134 71 -42 0 -65
-6 -90 -23 -63 -42 -68 -66 -69 -309 l0 -218 -75 0 -75 0 0 459 c0 358 3 460
13 464 18 8 103 8 121 1z m-3602 -269 c66 -47 95 -104 106 -206 20 -186 114
-301 282 -344 209 -54 415 105 436 337 8 88 30 142 74 185 47 45 90 63 154 63
95 0 166 -42 208 -124 38 -74 34 -235 -9 -371 -21 -64 -95 -207 -111 -213 -9
-3 -12 58 -12 251 l0 256 -26 20 c-34 27 -47 26 -77 -1 -20 -19 -26 -39 -36
-113 -33 -271 -259 -475 -525 -475 -164 0 -340 96 -438 238 -42 61 -88 192
-88 252 0 64 -14 98 -45 110 -34 13 -73 -3 -80 -32 -3 -13 -7 -132 -8 -266 -1
-152 -6 -243 -12 -243 -16 -3 -110 194 -128 269 -10 41 -17 110 -17 169 0 87
3 106 26 151 17 34 41 63 67 81 59 39 63 41 144 38 62 -2 78 -7 115 -32z m564
16 c70 -32 134 -133 134 -212 0 -39 -26 -107 -57 -147 -55 -72 -182 -102 -268
-63 -177 80 -179 338 -3 424 45 23 142 22 194 -2z m1295 -15 c71 -34 132 -94
166 -165 24 -49 28 -68 28 -151 0 -84 -4 -103 -29 -157 -47 -104 -133 -169
-254 -194 -152 -32 -319 55 -384 199 -17 37 -22 67 -22 147 -1 91 2 105 28
159 46 93 129 161 230 187 60 16 177 3 237 -25z m776 -2 c72 -35 128 -92 161
-163 24 -49 27 -69 27 -156 0 -118 -18 -166 -86 -240 -170 -184 -470 -135
-578 94 -22 49 -26 69 -25 151 0 86 3 101 31 155 48 94 128 159 228 186 60 16
182 3 242 -27z m568 25 c74 -21 163 -135 124 -160 -27 -17 -103 -23 -107 -9
-11 31 -55 60 -92 60 -48 0 -80 -30 -80 -75 0 -40 21 -57 125 -100 149 -61
190 -107 189 -212 -1 -85 -34 -135 -112 -171 -113 -51 -240 -35 -312 40 -40
40 -69 104 -54 118 12 10 73 30 95 30 10 0 24 -12 31 -27 21 -43 59 -65 112
-65 60 0 96 29 96 78 0 43 -35 72 -141 114 -132 53 -191 131 -174 229 20 122
157 190 300 150z m-3188 -707 c119 -114 246 -170 404 -179 203 -12 382 55 513
193 29 30 55 54 59 54 4 0 7 -47 7 -104 0 -118 2 -114 -89 -174 -71 -48 -186
-97 -276 -118 -107 -24 -304 -15 -408 20 -98 33 -145 57 -224 113 l-63 44 0
110 c0 60 1 109 3 109 1 0 34 -31 74 -68z"/>
<path d="M7156 5370 c-12 -36 -10 -54 7 -58 19 -4 24 32 7 58 -8 13 -10 13
-14 0z"/>
<path d="M8024 5396 c-12 -32 0 -61 28 -64 22 -3 29 2 34 22 7 31 -10 56 -38
56 -10 0 -21 -6 -24 -14z"/>
<path d="M8220 5391 c-17 -32 -12 -89 10 -111 34 -34 70 -3 70 60 0 44 -17 70
-45 70 -14 0 -29 -8 -35 -19z"/>
<path d="M8872 5398 c-18 -18 -15 -103 4 -122 20 -21 30 -20 54 4 36 36 18
130 -25 130 -11 0 -26 -5 -33 -12z"/>
<path d="M9090 5374 c0 -31 3 -35 21 -32 48 7 51 68 4 68 -22 0 -25 -4 -25
-36z"/>
<path d="M4150 5294 c0 -14 3 -14 15 -4 8 7 15 14 15 16 0 2 -7 4 -15 4 -8 0
-15 -7 -15 -16z"/>
<path d="M4471 5303 c0 -5 4 -17 9 -28 8 -18 9 -17 9 8 1 15 -3 27 -9 27 -5 0
-10 -3 -9 -7z"/>
<path d="M3997 5293 c-8 -13 5 -63 14 -57 12 7 12 51 0 59 -5 3 -12 2 -14 -2z"/>
<path d="M4630 5285 c0 -9 6 -12 15 -9 8 4 15 7 15 9 0 2 -7 5 -15 9 -9 3 -15
0 -15 -9z"/>
<path d="M3751 5234 c0 -11 3 -14 6 -6 3 7 2 16 -1 19 -3 4 -6 -2 -5 -13z"/>
<path d="M4465 5241 c-4 -7 -56 -11 -141 -11 -83 0 -134 -4 -134 -10 0 -12 7
-13 87 -10 73 2 143 -8 143 -21 0 -5 -45 -9 -99 -9 -56 0 -103 -4 -106 -10 -4
-6 35 -10 110 -10 106 0 117 2 111 17 -5 11 2 24 21 39 15 12 25 25 22 29 -4
3 -10 2 -14 -4z"/>
<path d="M4956 5217 c3 -10 9 -15 12 -12 3 3 0 11 -7 18 -10 9 -11 8 -5 -6z"/>
<path d="M3718 5213 c7 -3 16 -2 19 1 4 3 -2 6 -13 5 -11 0 -14 -3 -6 -6z"/>
<path d="M3910 5194 c-36 -9 -79 -19 -96 -25 -17 -5 -42 -9 -57 -9 -15 0 -27
-4 -27 -10 0 -13 46 -13 68 -1 29 15 162 25 162 12 0 -6 -8 -11 -17 -11 -10 0
-25 -5 -33 -11 -11 -7 -3 -9 30 -7 34 2 45 -1 45 -12 0 -10 -21 -18 -70 -27
-143 -26 -147 -27 -156 -12 -7 12 -9 11 -9 -2 0 -8 5 -20 12 -27 9 -9 9 -15 1
-23 -6 -6 -9 -26 -6 -45 5 -31 3 -35 -30 -49 -36 -15 -57 -35 -38 -35 19 0 12
-22 -9 -27 -19 -5 -19 -6 2 -34 12 -15 25 -26 30 -23 13 9 9 24 -7 24 -8 0
-15 7 -15 15 0 8 9 15 20 15 11 0 20 -6 20 -14 0 -7 11 -16 25 -18 16 -4 25
-1 25 8 0 7 -10 15 -22 17 l-23 4 23 8 c20 7 22 13 22 90 l0 82 73 16 c39 9
89 19 110 22 30 5 37 10 37 29 0 13 -7 26 -15 30 -22 8 -18 31 8 49 21 15 21
16 2 16 -11 -1 -49 -7 -85 -15z m-150 -280 c0 -8 -5 -12 -10 -9 -6 4 -8 11 -5
16 9 14 15 11 15 -7z m-30 -9 c0 -8 -4 -15 -9 -15 -13 0 -22 16 -14 24 11 11
23 6 23 -9z"/>
<path d="M4660 5194 c14 -11 27 -19 30 -19 3 -1 37 -5 75 -9 39 -4 78 -12 88
-17 18 -10 87 -2 87 10 0 3 -24 6 -52 7 -29 0 -84 8 -123 18 -38 9 -83 19
-100 22 l-30 6 25 -18z"/>
<path d="M3510 5159 c0 -5 5 -7 10 -4 6 3 10 8 10 11 0 2 -4 4 -10 4 -5 0 -10
-5 -10 -11z"/>
<path d="M5120 5159 c0 -5 5 -7 10 -4 6 3 10 8 10 11 0 2 -4 4 -10 4 -5 0 -10
-5 -10 -11z"/>
<path d="M4674 5148 c-6 -9 6 -14 51 -22 33 -5 95 -19 138 -31 23 -6 26 -5 21
10 -5 11 -15 15 -31 12 -13 -2 -26 0 -29 4 -3 5 -20 9 -39 9 -19 0 -36 4 -39
9 -8 12 -66 20 -72 9z"/>
<path d="M4203 5137 c4 -10 7 -21 7 -23 0 -2 52 -4 115 -4 85 0 115 3 115 13
0 9 -26 11 -105 9 -78 -3 -110 0 -122 10 -15 11 -16 11 -10 -5z"/>
<path d="M5145 5140 c3 -5 8 -10 11 -10 2 0 4 5 4 10 0 6 -5 10 -11 10 -5 0
-7 -4 -4 -10z"/>
<path d="M4647 5133 c-18 -29 53 -62 138 -62 45 0 11 15 -50 24 -57 7 -70 13
-77 35 -3 9 -7 10 -11 3z"/>
<path d="M3525 5108 c-9 -21 -81 -64 -139 -83 -21 -7 -21 -8 -1 -12 23 -4 126
40 145 62 6 8 10 23 8 35 -3 21 -3 21 -13 -2z"/>
<path d="M3798 5123 c-16 -2 -28 -9 -28 -15 0 -12 100 -1 115 13 9 9 -34 10
-87 2z"/>
<path d="M5111 5103 c-1 -25 28 -65 41 -57 7 5 67 -23 78 -37 3 -4 14 -3 25 1
18 7 17 9 -10 19 -64 25 -117 57 -125 76 -8 19 -9 19 -9 -2z"/>
<path d="M4189 5093 c-1 -4 0 -20 1 -35 1 -14 -4 -29 -10 -33 -6 -4 -8 -15 -5
-26 4 -13 2 -19 -9 -19 -9 0 -16 7 -16 15 0 23 -18 18 -22 -7 -5 -32 -28 -35
-28 -4 0 22 -4 26 -31 26 -25 0 -32 6 -45 36 -29 69 -25 26 6 -57 37 -102 38
-115 3 -122 -22 -4 -34 4 -75 47 l-48 51 -19 -22 c-10 -12 -25 -43 -32 -68 -9
-29 -18 -44 -26 -41 -7 3 -13 -2 -13 -10 0 -11 -6 -15 -18 -12 -10 3 -26 0
-36 -7 -9 -7 -26 -11 -36 -8 -11 3 -20 0 -20 -6 0 -28 -103 8 -118 42 -2 4
-10 7 -18 7 -8 0 -14 5 -14 10 0 6 -7 10 -15 10 -8 0 -15 5 -15 12 0 6 -3 8
-7 5 -3 -4 10 -31 30 -60 21 -30 37 -58 37 -64 0 -5 -11 -15 -25 -21 -33 -15
-33 -49 1 -62 22 -9 25 -14 19 -41 -5 -21 -2 -36 9 -48 13 -15 16 -90 18 -611
l3 -595 32 -83 c51 -131 100 -210 182 -292 97 -96 195 -149 341 -186 106 -26
301 -14 395 25 138 57 243 135 314 230 51 68 111 184 111 211 0 8 -14 -13 -30
-48 -79 -167 -178 -272 -325 -345 -84 -41 -169 -65 -250 -69 l-60 -3 -3 181
-2 182 34 6 35 7 -2 117 c-1 100 1 121 17 145 17 25 18 35 8 89 -9 50 -9 64 3
82 8 11 15 28 15 37 0 10 4 19 8 21 5 2 12 15 16 31 5 19 2 29 -8 33 -24 9
-98 -78 -77 -91 15 -9 14 -37 -2 -59 -11 -15 -12 -12 -9 23 4 37 1 42 -24 51
-21 8 -35 8 -54 -2 -14 -7 -28 -14 -32 -16 -16 -8 -7 21 10 34 9 7 17 18 17
25 0 6 13 21 28 33 l29 21 19 -24 c11 -13 22 -22 24 -19 9 9 -7 38 -26 48 -14
8 -16 18 -12 45 4 23 2 35 -6 35 -20 0 -12 36 14 60 22 20 25 21 31 6 3 -9 1
-23 -6 -31 -11 -13 -10 -21 0 -41 8 -13 20 -22 27 -20 7 3 17 -2 22 -12 5 -9
13 -13 18 -9 4 5 -2 16 -14 25 -13 10 -21 28 -21 45 1 32 -20 77 -35 77 -5 0
-23 -14 -39 -31 -29 -30 -53 -34 -29 -5 7 9 16 62 19 122 l7 107 34 12 c59 19
76 54 76 148 l0 82 -57 3 -58 3 0 84 0 85 350 0 350 0 0 -572 c0 -374 4 -568
10 -558 6 9 10 232 10 579 0 514 1 566 17 583 13 14 14 21 5 30 -19 19 -14 37
13 44 31 8 34 48 5 64 -27 15 -25 25 16 82 20 27 34 51 32 54 -3 2 -36 -16
-73 -41 -65 -43 -125 -59 -125 -34 0 6 -8 8 -19 4 -12 -3 -23 0 -28 8 -4 8
-19 14 -33 13 -19 -1 -26 5 -29 24 -3 22 -4 23 -10 6 -6 -15 -12 -5 -30 42
-12 34 -26 64 -31 67 -14 9 -50 -19 -82 -62 -16 -20 -28 -31 -28 -25 0 7 -11
9 -30 6 -34 -7 -37 0 -16 48 21 51 44 111 51 134 5 18 1 22 -21 22 -15 0 -21
-4 -14 -8 6 -4 10 -18 8 -31 -2 -18 -10 -25 -31 -27 -19 -2 -31 -11 -38 -28
-10 -28 -29 -24 -29 7 0 11 -8 22 -17 25 -10 3 -26 10 -35 15 -16 8 -18 4 -18
-30 0 -22 4 -42 8 -45 5 -3 7 -19 4 -36 -4 -25 -9 -30 -33 -30 -23 0 -32 7
-48 38 -10 20 -29 46 -40 57 -22 19 -22 19 -46 -10 -13 -17 -29 -43 -36 -58
-9 -21 -14 -25 -21 -15 -7 10 -10 9 -19 -4 -5 -10 -17 -18 -25 -18 -13 0 -14
10 -8 58 4 31 11 67 15 80 12 31 11 69 -1 77 -5 3 -10 3 -11 -2z m311 -98 c0
-8 -7 -15 -15 -15 -16 0 -20 12 -8 23 11 12 23 8 23 -8z m-420 -21 c0 -17 -22
-14 -28 4 -2 7 3 12 12 12 9 0 16 -7 16 -16z m520 6 c0 -12 -28 -25 -36 -17
-9 9 6 27 22 27 8 0 14 -5 14 -10z m-429 -35 c0 -5 -9 -11 -21 -13 -20 -3 -27
8 -13 22 10 9 34 3 34 -9z m340 0 c-1 -15 -24 -12 -29 3 -3 9 2 13 12 10 10
-1 17 -7 17 -13z m-401 -15 c0 -11 5 -20 10 -20 6 0 10 -9 10 -20 0 -14 -7
-20 -21 -20 -16 0 -20 5 -16 20 3 12 -1 23 -10 29 -18 10 -9 31 13 31 8 0 14
-9 14 -20z m470 11 c0 -6 -4 -13 -10 -16 -5 -3 -10 -17 -10 -31 0 -17 -5 -24
-20 -24 -13 0 -20 7 -20 20 0 11 5 20 10 20 6 0 10 9 10 20 0 13 7 20 20 20
11 0 20 -4 20 -9z m-80 -41 c0 -5 -4 -10 -10 -10 -5 0 -10 5 -10 10 0 6 5 10
10 10 6 0 10 -4 10 -10z m50 -48 c188 -26 483 -110 519 -147 15 -16 13 -16
-29 -10 -25 4 -47 11 -50 15 -3 4 -22 10 -44 14 -21 4 -46 11 -55 16 -29 15
-161 45 -311 70 -218 37 -526 16 -765 -52 -38 -11 -88 -25 -110 -30 -22 -6
-45 -15 -50 -19 -6 -4 -30 -11 -53 -15 -65 -10 -51 11 26 39 306 113 645 157
922 119z m45 -62 c134 -24 171 -32 187 -40 10 -6 27 -10 38 -10 19 0 88 -23
120 -39 9 -5 30 -12 48 -15 54 -12 51 -30 -4 -21 -27 4 -52 12 -55 17 -4 6
-16 8 -28 5 -12 -3 -21 -1 -21 4 0 5 -13 9 -30 9 -16 0 -30 4 -30 8 0 9 -73
24 -205 43 -38 5 -93 15 -120 20 -66 14 -342 5 -455 -15 -124 -21 -292 -60
-325 -75 -38 -18 -83 -29 -89 -24 -14 15 0 22 97 52 167 53 283 78 407 91 95
10 388 3 465 -10z m5 -49 c47 -7 94 -16 105 -21 24 -10 74 -21 97 -21 10 0 20
-4 23 -10 4 -5 17 -9 30 -9 13 0 26 -4 29 -9 3 -5 26 -12 51 -15 25 -4 45 -11
45 -17 0 -5 8 -9 19 -9 10 0 24 -7 32 -16 11 -13 9 -14 -17 -8 -16 4 -33 10
-39 14 -5 4 -26 11 -45 14 -19 4 -44 11 -55 16 -52 21 -201 51 -355 71 -99 13
-423 6 -490 -10 -25 -6 -79 -18 -120 -26 -83 -18 -192 -48 -258 -72 -23 -9
-45 -13 -49 -9 -10 10 1 16 78 43 127 43 233 70 359 89 52 8 100 16 105 19 21
8 373 -2 455 -14z m-65 -41 c87 -10 170 -25 225 -40 179 -48 233 -67 226 -79
-2 -3 -305 -5 -673 -3 -737 3 -722 1 -508 60 267 73 477 91 730 62z m-649
-357 c1 -7 2 -17 3 -23 0 -5 12 -10 26 -10 20 0 25 -5 25 -24 0 -30 -13 -40
-40 -31 -12 4 -20 15 -20 30 0 18 -4 22 -20 18 -14 -4 -22 1 -29 18 -5 13 -7
28 -4 32 8 13 58 4 59 -10z m114 -2 c0 -10 -6 -24 -14 -30 -20 -17 -46 -3 -46
25 0 20 5 24 30 24 23 0 30 -5 30 -19z m300 -7 c0 -20 4 -25 23 -22 18 2 23
-2 25 -25 2 -18 -2 -29 -12 -33 -20 -8 -46 13 -46 36 0 11 -8 16 -22 16 -18
-1 -24 5 -26 27 -3 24 0 27 27 27 27 0 31 -4 31 -26z m110 1 c0 -14 -7 -28
-15 -31 -20 -8 -45 13 -45 37 0 14 7 19 30 19 25 0 30 -4 30 -25z m-526 -90
c7 -19 -2 -42 -18 -48 -24 -10 -41 13 -37 51 1 17 48 15 55 -3z m114 -6 c4
-22 -25 -50 -43 -43 -15 6 -21 45 -8 58 12 12 48 2 51 -15z m300 -5 c4 -29
-23 -51 -43 -34 -16 13 -20 42 -8 54 14 14 48 1 51 -20z m110 2 c5 -26 -26
-50 -45 -35 -14 12 -17 41 -6 53 13 13 48 1 51 -18z m-593 -173 c13 -13 21
-14 35 -5 13 8 21 7 29 -1 9 -9 14 -8 22 3 8 12 12 12 16 2 4 -10 8 -10 21 0
12 10 16 10 19 1 6 -18 31 -16 51 3 14 15 17 15 27 0 13 -18 35 -22 35 -6 0 6
9 10 20 10 17 0 20 -7 20 -53 0 -32 -6 -61 -16 -75 -13 -19 -15 -67 -15 -342
l0 -320 -168 1 -168 0 1 317 1 317 33 3 c29 3 32 6 32 38 0 31 -2 34 -30 34
-27 0 -30 -3 -30 -30 0 -66 -37 -20 -44 54 -5 52 5 64 41 45 22 -12 26 -11 34
4 12 21 14 21 34 0z m474 -239 c-7 -13 -21 -24 -31 -24 -15 0 -17 -5 -12 -25
6 -25 -9 -35 -22 -14 -7 13 35 101 46 94 5 -3 11 3 15 13 8 16 8 16 13 -2 2
-10 -2 -29 -9 -42z m-72 -216 c-3 -8 -6 -5 -6 6 -1 11 2 17 5 13 3 -3 4 -12 1
-19z"/>
<path d="M4185 4680 c-93 -7 -270 -38 -340 -59 -19 -6 153 -9 475 -9 316 0
494 3 475 9 -111 33 -400 73 -490 67 -11 0 -65 -4 -120 -8z"/>
<path d="M4000 3955 c0 -33 2 -35 35 -35 33 0 35 2 35 35 0 33 -2 35 -35 35
-33 0 -35 -2 -35 -35z"/>
<path d="M3926 3754 c-10 -25 -7 -34 9 -34 8 0 15 9 15 19 0 26 -16 35 -24 15z"/>
<path d="M3872 3739 c1 -13 8 -23 13 -21 15 3 12 35 -3 40 -9 3 -13 -3 -10
-19z"/>
<path d="M3882 3603 c3 -44 5 -48 28 -48 23 0 25 4 25 45 0 42 -2 45 -28 48
-28 3 -28 3 -25 -45z"/>
<path d="M3760 3500 c0 -5 5 -10 10 -10 6 0 10 5 10 10 0 6 -4 10 -10 10 -5 0
-10 -4 -10 -10z"/>
<path d="M3887 3503 c-4 -3 -7 -28 -7 -55 0 -48 1 -49 28 -46 21 2 28 9 30 32
5 44 -6 76 -27 76 -10 0 -21 -3 -24 -7z"/>
<path d="M3898 3313 c7 -3 16 -2 19 1 4 3 -2 6 -13 5 -11 0 -14 -3 -6 -6z"/>
<path d="M4437 5093 c-2 -4 -1 -17 4 -28 6 -17 8 -17 8 -2 1 20 21 22 40 5 10
-11 11 -10 6 5 -4 9 -11 17 -15 17 -5 0 -15 3 -23 6 -8 3 -17 2 -20 -3z"/>
<path d="M4237 5084 c-13 -13 -7 -24 14 -24 11 0 19 5 17 12 -5 14 -22 21 -31
12z"/>
<path d="M4385 5081 c-7 -12 12 -24 25 -16 11 7 4 25 -10 25 -5 0 -11 -4 -15
-9z"/>
<path d="M4850 5070 c-32 -7 -33 -8 -12 -15 21 -7 22 -12 22 -117 0 -110 0
-110 23 -104 12 3 25 6 30 6 4 0 7 7 7 15 0 8 9 15 20 15 11 0 20 -7 20 -15 0
-8 -7 -15 -15 -15 -8 0 -15 -7 -15 -15 0 -25 14 -17 50 28 19 23 47 55 63 71
15 16 25 31 22 35 -4 3 -16 -6 -27 -22 -11 -15 -28 -27 -38 -27 -13 0 -17 -5
-13 -20 4 -14 0 -20 -10 -20 -20 0 -35 22 -19 28 7 2 12 8 12 13 0 15 -22 10
-36 -8 -12 -16 -13 -15 -14 10 0 17 -5 27 -15 27 -15 0 -21 44 -17 113 1 15 1
26 0 26 -2 -1 -19 -5 -38 -9z m50 -156 c0 -8 -5 -12 -10 -9 -6 4 -8 11 -5 16
9 14 15 11 15 -7z m0 -44 c0 -5 -4 -10 -10 -10 -5 0 -10 5 -10 10 0 6 5 10 10
10 6 0 10 -4 10 -10z"/>
<path d="M3950 5045 c0 -8 7 -15 15 -15 8 0 15 7 15 15 0 8 -7 15 -15 15 -8 0
-15 -7 -15 -15z"/>
<path d="M4670 5045 c0 -8 7 -15 15 -15 8 0 15 7 15 15 0 8 -7 15 -15 15 -8 0
-15 -7 -15 -15z"/>
<path d="M5348 5053 c7 -3 16 -2 19 1 4 3 -2 6 -13 5 -11 0 -14 -3 -6 -6z"/>
<path d="M3468 5009 c-27 -14 -38 -26 -38 -42 1 -20 2 -20 11 -4 6 10 28 25
50 33 21 9 39 20 39 25 0 13 -20 9 -62 -12z"/>
<path d="M3802 5014 c4 -21 22 -23 26 -1 2 10 -3 17 -13 17 -10 0 -15 -6 -13
-16z"/>
<path d="M4817 5024 c-9 -10 2 -24 19 -24 8 0 14 7 14 15 0 15 -21 21 -33 9z"/>
<path d="M5116 5021 c-3 -5 15 -16 39 -26 25 -9 45 -23 45 -31 0 -8 5 -14 11
-14 24 0 1 34 -39 56 -48 27 -49 27 -56 15z"/>
<path d="M4910 5000 c0 -11 4 -20 9 -20 5 0 7 9 4 20 -3 11 -7 20 -9 20 -2 0
-4 -9 -4 -20z"/>
<path d="M3555 5000 c-4 -6 -24 -18 -46 -27 -21 -8 -39 -21 -39 -28 0 -20 88
25 94 47 5 20 1 23 -9 8z"/>
<path d="M3720 4995 c-7 -9 -10 -18 -7 -21 3 -3 10 4 17 15 13 25 8 27 -10 6z"/>
<path d="M5090 4980 c0 -5 11 -12 25 -16 36 -9 51 -30 34 -51 -9 -11 -10 -14
-2 -9 7 4 17 15 23 26 8 15 3 21 -30 39 -46 24 -50 25 -50 11z"/>
<path d="M3580 4952 c0 -4 16 -24 35 -42 30 -29 37 -32 45 -20 7 11 4 16 -10
18 -11 2 -28 14 -39 28 -19 24 -31 31 -31 16z"/>
<path d="M4243 4945 c-3 -9 -3 -18 -1 -21 3 -3 8 4 11 16 6 23 -1 27 -10 5z"/>
<path d="M3525 4930 c-3 -6 1 -13 10 -16 19 -8 30 0 20 15 -8 14 -22 14 -30 1z"/>
<path d="M5087 4934 c-9 -10 2 -24 19 -24 8 0 14 7 14 15 0 15 -21 21 -33 9z"/>
<path d="M3841 4894 c0 -11 3 -14 6 -6 3 7 2 16 -1 19 -3 4 -6 -2 -5 -13z"/>
<path d="M4385 4530 c-3 -5 1 -10 9 -10 12 0 16 -10 16 -40 0 -22 5 -40 10
-40 6 0 10 18 10 40 0 22 5 40 10 40 6 0 10 5 10 10 0 6 -13 10 -29 10 -17 0
-33 -4 -36 -10z"/>
<path d="M4617 4534 c-11 -11 -8 -94 3 -94 6 0 10 12 10 28 l1 27 22 -27 c13
-16 26 -28 30 -28 4 0 7 20 7 45 0 25 -4 45 -10 45 -5 0 -10 -9 -10 -20 0 -11
-4 -20 -10 -20 -5 0 -10 4 -10 8 0 15 -26 43 -33 36z"/>
<path d="M4778 4529 c-21 -12 -24 -59 -6 -77 7 -7 27 -12 45 -12 29 0 33 3 33
25 0 16 -6 25 -15 25 -8 0 -15 -9 -15 -20 0 -22 -7 -25 -28 -11 -8 4 -12 19
-10 32 2 19 9 24 31 24 15 -1 26 4 24 10 -5 14 -39 17 -59 4z"/>
<path d="M4520 4485 c0 -25 5 -45 10 -45 6 0 10 20 10 45 0 25 -4 45 -10 45
-5 0 -10 -20 -10 -45z"/>
<path d="M4630 4304 c0 -47 5 -94 10 -105 25 -45 114 -64 160 -32 44 30 49 44
50 136 l0 87 -110 0 -110 0 0 -86z m80 31 c0 -14 -7 -28 -15 -31 -20 -8 -45
13 -45 37 0 14 7 19 30 19 25 0 30 -4 30 -25z m120 6 c0 -24 -25 -45 -45 -37
-8 3 -15 17 -15 31 0 21 5 25 30 25 23 0 30 -5 30 -19z m-60 -50 c-1 -47 -53
-56 -58 -9 -2 19 2 27 15 30 26 6 43 -2 43 -21z m-62 -54 c6 -28 -16 -49 -39
-36 -19 10 -25 39 -12 53 13 13 48 1 51 -17z m112 0 c0 -32 -18 -49 -42 -36
-18 10 -24 39 -11 52 3 4 17 7 30 7 17 0 23 -6 23 -23z"/>
<path d="M4580 3966 c0 -13 -2 -30 -5 -38 -4 -10 4 -13 33 -10 37 4 38 5 34
38 -4 30 -8 34 -33 34 -24 0 -29 -4 -29 -24z"/>
<path d="M4832 3956 c1 -31 4 -35 35 -38 32 -4 33 -3 33 34 0 37 -1 38 -35 38
-33 0 -34 -2 -33 -34z"/>
<path d="M4702 3739 c1 -13 8 -23 13 -21 15 3 12 35 -3 40 -9 3 -13 -3 -10
-19z"/>
<path d="M4757 3753 c-13 -12 -7 -33 8 -33 8 0 15 9 15 20 0 20 -11 26 -23 13z"/>
<path d="M4310 3719 c0 -5 5 -7 10 -4 6 3 10 8 10 11 0 2 -4 4 -10 4 -5 0 -10
-5 -10 -11z"/>
<path d="M4712 3603 c3 -44 5 -48 28 -48 23 0 25 4 25 45 0 42 -2 45 -28 48
-28 3 -28 3 -25 -45z"/>
<path d="M4595 3590 c3 -5 8 -10 11 -10 2 0 4 5 4 10 0 6 -5 10 -11 10 -5 0
-7 -4 -4 -10z"/>
<path d="M4590 3500 c0 -5 5 -10 10 -10 6 0 10 5 10 10 0 6 -4 10 -10 10 -5 0
-10 -4 -10 -10z"/>
<path d="M4717 3503 c-4 -3 -7 -28 -7 -55 0 -48 1 -49 28 -46 21 2 28 9 30 32
5 44 -6 76 -27 76 -10 0 -21 -3 -24 -7z"/>
<path d="M5012 3375 c0 -16 2 -22 5 -12 2 9 2 23 0 30 -3 6 -5 -1 -5 -18z"/>
<path d="M4997 3334 c-4 -4 -7 -14 -7 -23 0 -11 3 -12 11 -4 6 6 10 16 7 23
-2 6 -7 8 -11 4z"/>
<path d="M4810 3200 c0 -14 43 -80 53 -80 4 0 7 11 7 24 0 16 7 26 23 30 20 7
20 8 -13 21 -43 16 -70 18 -70 5z m45 -20 c3 -5 1 -10 -4 -10 -6 0 -11 5 -11
10 0 6 2 10 4 10 3 0 8 -4 11 -10z"/>
<path d="M4738 3115 c-23 -51 48 -88 86 -44 16 19 16 23 3 36 -20 20 -43 7
-26 -13 15 -19 -2 -39 -26 -31 -28 11 -30 38 -4 58 l24 19 -23 0 c-14 0 -26
-9 -34 -25z"/>
<path d="M4671 3048 c0 -7 6 -29 13 -48 12 -34 13 -34 24 -13 7 12 22 23 34
25 21 3 20 5 -13 26 -41 25 -59 28 -58 10z"/>
<path d="M4585 3008 c-11 -6 -21 -12 -23 -13 -6 -5 32 -75 40 -75 4 0 8 9 8
20 0 22 20 26 38 8 17 -17 15 3 -4 40 -17 34 -27 38 -59 20z m35 -23 c0 -8 -7
-15 -15 -15 -8 0 -15 7 -15 15 0 8 7 15 15 15 8 0 15 -7 15 -15z"/>
<path d="M4493 2969 c-26 -10 -27 -14 -12 -58 12 -34 33 -40 64 -17 16 12 17
17 6 44 -15 36 -28 42 -58 31z m27 -19 c0 -5 -7 -10 -16 -10 -8 0 -12 5 -9 10
3 6 10 10 16 10 5 0 9 -4 9 -10z m20 -35 c0 -8 -9 -15 -20 -15 -20 0 -26 11
-13 23 12 13 33 7 33 -8z"/>
<path d="M4338 2935 c-3 -3 -2 -22 1 -43 6 -34 9 -37 41 -39 29 -1 31 -1 11 5
-30 9 -38 29 -14 35 17 4 17 5 1 6 -25 1 -22 20 5 31 20 8 20 9 -9 9 -17 1
-33 -1 -36 -4z"/>
<path d="M7659 4116 c-71 -35 -46 -136 35 -136 28 0 66 42 66 72 0 51 -56 87
-101 64z"/>
<path d="M8843 4124 c-162 -82 -156 -330 9 -399 100 -41 214 3 259 100 43 93
15 216 -64 279 -32 26 -48 31 -105 34 -48 2 -76 -2 -99 -14z"/>
<path d="M9615 4124 c-78 -40 -115 -104 -115 -196 1 -131 83 -218 207 -218
112 0 193 90 193 213 0 137 -75 217 -202 217 -29 0 -66 -7 -83 -16z"/>
</g>
</svg>
