<svg width="24" height="24" viewBox="0 0 24 24" fill="none" xmlns="http://www.w3.org/2000/svg">
<g clip-path="url(#clip0_752_3737)">
<mask id="mask0_752_3737" style="mask-type:luminance" maskUnits="userSpaceOnUse" x="0" y="0" width="24" height="24">
<path d="M0 0H24V24H0V0Z" fill="white"/>
</mask>
<g mask="url(#mask0_752_3737)">
<path d="M23.5002 6.50684C23.3636 6.02235 23.099 5.58363 22.7342 5.23684C22.3584 4.87984 21.898 4.62448 21.3962 4.49484C19.5182 3.99984 11.9942 3.99984 11.9942 3.99984C8.8575 3.9651 5.72166 4.12205 2.60415 4.46984C2.10234 4.60905 1.64272 4.87013 1.26615 5.22984C0.896153 5.58584 0.628153 6.02484 0.488153 6.50584C0.151306 8.31751 -0.0120999 10.1572 0.000152816 11.9998C-0.0118472 13.8408 0.151153 15.6798 0.488153 17.4938C0.625153 17.9728 0.892153 18.4098 1.26315 18.7628C1.63415 19.1158 2.09615 19.3708 2.60415 19.5058C4.50715 19.9998 11.9942 19.9998 11.9942 19.9998C15.1348 20.0351 18.2747 19.8781 21.3962 19.5298C21.898 19.4002 22.3584 19.1448 22.7342 18.7878C23.0986 18.4409 23.3629 18.0022 23.4992 17.5178C23.8441 15.7068 24.0119 13.8664 24.0002 12.0228C24.026 10.1715 23.8584 8.32343 23.5002 6.50684ZM9.60215 15.4238V8.57684L15.8622 12.0008L9.60215 15.4238Z" fill="white"/>
</g>
</g>
<defs>
<clipPath id="clip0_752_3737">
<rect width="24" height="24" fill="white"/>
</clipPath>
</defs>
</svg>
